#VRML V2.0 utf8
# 3D model generated by easyeda2kicad.py (https://github.com/uPesy/easyeda2kicad.py)

Shape{
    appearance Appearance {
        material  Material 	{
            diffuseColor 0.08235294117647059 0.08235294117647059 0.08235294117647059
            specularColor 0.0392156862745098 0.0392156862745098 0.0392156862745098
            ambientIntensity 0.0824
            transparency 0.0
            shininess 0.5
        }
    }
    geometry IndexedFaceSet {
        ccw TRUE
        solid FALSE
        coord DEF co Coordinate {
            point [
                -0.2137 0.2205 0.0984, -0.027 0.2205 0.0984, -0.027 0.0994 0.0984, -0.2137 0.0994 0.0984, -0.2137 0.059 0.0984, -0.249 -0.1378 0.0984, -0.2137 0.2609 0.0984, -0.249 1.5258 0.0984, 0.0084 0.2609 0.0984, -0.027 0.059 0.0984, -0.027 -0.0924 0.0984, -0.2137 -0.0924 0.0984, -0.2137 -0.1328 0.0984, 0.0084 -0.1328 0.0984, 0.3504 0.209 0.0984, 0.4114 0.1541 0.0984, 0.2631 0.2306 0.0984, 0.4368 0.0795 0.0984, 0.4374 0.0637 0.0984, 0.417 -0.0175 0.0984, 0.3627 -0.0743 0.0984, 0.2855 -0.1012 0.0984, 0.0891 -0.0603 0.0984, 0.0891 0.1887 0.0984, 0.12 -0.0369 0.0984, 0.12 0.165 0.0984, 0.1829 -0.0858 0.0984, 0.1839 0.2144 0.0984, 0.2607 -0.1025 0.0984, 0.221 0.2264 0.0984, 0.2468 0.23 0.0984, 0.4474 0.1669 0.0984, 0.6696 0.2609 0.0984, 0.4727 0.0664 0.0984, 0.6696 -0.0924 0.0984, 0.4607 -0.0085 0.0984, 0.5182 -0.0924 0.0984, 0.4228 -0.074 0.0984, 0.4103 -0.0873 0.0984, 0.38 0.2379 0.0984, 0.2783 0.2704 0.0984, 0.2609 0.271 0.0984, 0.1648 0.2508 0.0984, 0.1245 0.2259 0.0984, 0.1646 -0.1224 0.0984, 0.1015 0.2041 0.0984, 0.7049 -0.1328 0.0984, 0.2885 -0.1378 0.0984, 0.5182 -0.1328 0.0984, 0.3496 -0.1269 0.0984, 0.3879 -0.1059 0.0984, 0.2107 -0.1378 0.0984, 0.2407 -0.1422 0.0984, -0.249 -1.5258 0.0984, 0.2604 -0.1429 0.0984, 0.7049 0.2609 0.0984, 2.3919 1.5258 0.0984, 2.3919 -0.1378 0.0984, 2.3919 -1.5258 0.0984, -2.3919 -1.5258 0.0984, -2.3919 -0.1378 0.0984, 0.2094 -0.1376 0.0984, -0.6965 -0.1328 0.0984, -0.6579 -0.1328 0.0984, -0.993 -0.1328 0.0984, -0.9348 -0.0066 0.0984, -0.7563 -0.0066 0.0984, -0.4888 0.2467 0.0984, -0.5598 0.199 0.0984, -0.8446 0.2609 0.0984, -0.5282 -0.1052 0.0984, -0.4489 -0.1306 0.0984, -0.4064 -0.1328 0.0984, -0.4269 0.2585 0.0984, -2.3919 1.5258 0.0984, -0.8497 0.2609 0.0984, -1.0314 -0.1328 0.0984, -0.6 0.121 0.0984, -0.6074 0.0591 0.0984, -0.5852 -0.0399 0.0984, -0.2844 -0.1328 0.0984, -0.2844 0.2609 0.0984, -0.3639 0.2609 0.0984, -1.6181 1.6339 1.225, -1.6181 1.6339 1.1265, -2.5 1.6339 1.225, -2.5 1.6339 1.1265, 1.3819 1.6339 1.225, 1.3819 1.6339 1.1265, -1.3819 1.6339 1.225, -1.3819 1.6339 1.1265, -1.6181 -1.6339 1.1265, -1.6181 -1.6339 1.225, -2.5 -1.6339 1.1265, -2.5 -1.6339 1.225, -0.6181 -1.6339 1.1265, -0.6181 -1.6339 1.225, -1.3819 -1.6339 1.1265, -1.3819 -1.6339 1.225, 1.3819 -1.6339 1.1265, 1.3819 -1.6339 1.225, -0.3819 -1.6339 1.1265, -0.3819 -1.6339 1.225, 2.5 -1.6339 1.225, 2.5 -1.6339 1.1265, 2.5 1.6339 1.225, 2.5 1.6339 1.1265, 1.6181 1.6339 1.225, 1.6181 1.6339 1.1265, 1.6181 -1.6339 1.1265, 1.6181 -1.6339 1.225, -2.3287 1.4626 2.8543, -2.3287 0.2744 2.8543, -1.8885 0.2744 2.8543, 2.3287 1.4626 2.8543, -1.2666 -1.1478 2.8543, -1.3573 -1.2386 2.8543, 2.3287 -1.4626 2.8543, -1.4813 -1.2718 2.8543, -2.3287 -1.4626 2.8543, -1.6052 -1.2386 2.8543, -1.6508 -0.1372 2.8543, -1.6959 -0.9 2.8543, -1.6052 -0.8093 2.8543, -1.6141 -0.0 2.8543, -1.7513 0.2377 2.8543, -1.6508 0.1372 2.8543, -1.4813 -0.776 2.8543, -1.3573 -0.8093 2.8543, -1.2666 -0.9 2.8543, -1.2334 -1.0239 2.8543, -1.7291 -1.0239 2.8543, -1.7513 -0.2377 2.8543, -1.8885 -0.2744 2.8543, -2.3287 -0.2744 2.8543, -1.6959 -1.1478 2.8543
            ]
        }
        coordIndex [
            0,1,2,-1,3,4,5,-1,2,3,0,-1,0,3,5,-1,0,5,6,-1,6,5,7,-1,6,7,8,-1,9,10,4,-1,4,10,11,-1,4,11,5,-1,5,11,12,-1,5,12,13,-1,14,15,16,-1,16,15,17,-1,16,17,18,-1,18,19,16,-1,16,19,20,-1,16,20,21,-1,22,23,24,-1,24,23,25,-1,24,25,26,-1,26,25,27,-1,26,27,28,-1,28,27,29,-1,28,29,21,-1,21,29,30,-1,21,30,16,-1,31,32,33,-1,33,32,34,-1,33,34,35,-1,35,34,36,-1,35,36,37,-1,37,36,38,-1,39,40,7,-1,40,41,7,-1,7,41,42,-1,7,42,43,-1,44,13,22,-1,22,13,8,-1,22,8,23,-1,23,8,7,-1,23,7,45,-1,45,7,43,-1,46,47,48,-1,48,47,49,-1,48,49,36,-1,36,49,50,-1,36,50,38,-1,51,52,53,-1,53,52,54,-1,53,54,47,-1,31,39,32,-1,32,39,7,-1,32,7,55,-1,55,7,56,-1,55,56,46,-1,46,56,57,-1,46,57,47,-1,47,57,58,-1,47,58,53,-1,59,60,53,-1,53,60,5,-1,53,5,51,-1,51,5,13,-1,51,13,61,-1,61,13,44,-1,62,63,5,-1,64,65,66,-1,67,68,69,-1,70,71,63,-1,63,71,72,-1,63,72,5,-1,73,67,7,-1,7,67,69,-1,7,69,74,-1,74,69,75,-1,74,75,60,-1,60,75,76,-1,60,76,5,-1,5,76,64,-1,5,64,62,-1,62,64,66,-1,68,77,69,-1,69,77,78,-1,69,78,63,-1,63,78,79,-1,63,79,70,-1,72,80,5,-1,5,80,81,-1,5,81,7,-1,7,81,82,-1,7,82,73,-1,83,84,85,-1,85,84,86,-1,87,88,89,-1,89,88,90,-1,91,92,93,-1,93,92,94,-1,95,96,97,-1,97,96,98,-1,99,100,101,-1,101,100,102,-1,103,104,105,-1,105,104,106,-1,105,106,107,-1,107,106,108,-1,93,94,86,-1,86,94,85,-1,104,103,109,-1,109,103,110,-1,111,112,113,-1,111,113,114,-1,115,116,117,-1,117,116,118,-1,117,118,119,-1,119,118,120,-1,121,122,123,-1,121,123,124,-1,113,125,114,-1,114,125,126,-1,114,126,124,-1,123,127,124,-1,124,127,128,-1,124,128,114,-1,114,128,129,-1,114,129,117,-1,117,129,130,-1,117,130,115,-1,122,121,131,-1,131,121,132,-1,131,132,133,-1,133,134,131,-1,131,134,119,-1,131,119,135,-1,135,119,120,-1,
        ]
    }
}
Shape{
    appearance Appearance {
        material  Material 	{
            diffuseColor 0.7529411764705882 0.7529411764705882 0.7529411764705882
            specularColor 0.3764705882352941 0.3764705882352941 0.3764705882352941
            ambientIntensity 0.7529
            transparency 0.0
            shininess 0.5
        }
    }
    geometry IndexedFaceSet {
        ccw TRUE
        solid FALSE
        coord DEF co Coordinate {
            point [
                -1.6181 1.7157 1.225, -1.6181 1.6339 1.225, -1.3819 1.7157 1.225, -1.3819 1.6339 1.225, -1.3819 1.7613 1.2138, -1.6181 1.7613 1.2138, -1.3819 1.7965 1.1827, -1.6181 1.7965 1.1827, -1.3819 1.8133 1.1389, -1.6181 1.8133 1.1389, -1.6181 1.9407 0.1329, -1.3819 1.9407 0.1329, -1.6181 1.9474 0.1153, -1.3819 1.9474 0.1153, -1.6181 1.9615 0.1029, -1.3819 1.9615 0.1029, -1.6181 1.9797 0.0984, -1.3819 1.9797 0.0984, -1.6181 2.2047 0.0984, -1.3819 2.2047 0.0984, -1.6181 2.2047 0.0, -1.3819 2.2047 0.0, -1.6181 1.945 0.0, -1.3819 1.945 0.0, -1.3819 1.8994 0.0112, -1.6181 1.8994 0.0112, -1.3819 1.8642 0.0422, -1.6181 1.8642 0.0422, -1.3819 1.8474 0.0861, -1.6181 1.8474 0.0861, -1.6181 1.72 1.0921, -1.3819 1.72 1.0921, -1.6181 1.7133 1.1096, -1.3819 1.7133 1.1096, -1.6181 1.6992 1.1221, -1.3819 1.6992 1.1221, -1.6181 1.681 1.1265, -1.3819 1.681 1.1265, -1.6181 1.6339 1.1265, -1.3819 1.6339 1.1265, -1.6181 -1.8133 1.1389, -1.3819 -1.8133 1.1389, -1.3819 -1.7965 1.1827, -1.6181 -1.7965 1.1827, -1.3819 -1.7613 1.2138, -1.6181 -1.7613 1.2138, -1.3819 -1.7157 1.225, -1.6181 -1.7157 1.225, -1.6181 -1.6339 1.225, -1.3819 -1.6339 1.225, -1.6181 -1.681 1.1265, -1.6181 -1.6339 1.1265, -1.3819 -1.681 1.1265, -1.3819 -1.6339 1.1265, -1.6181 -1.6992 1.1221, -1.3819 -1.6992 1.1221, -1.6181 -1.7133 1.1096, -1.3819 -1.7133 1.1096, -1.6181 -1.72 1.0921, -1.3819 -1.72 1.0921, -1.6181 -1.8474 0.0861, -1.3819 -1.8474 0.0861, -1.3819 -1.8642 0.0422, -1.6181 -1.8642 0.0422, -1.3819 -1.8994 0.0112, -1.6181 -1.8994 0.0112, -1.3819 -1.945 0.0, -1.6181 -1.945 0.0, -1.6181 -2.2047 0.0, -1.3819 -2.2047 0.0, -1.6181 -2.2047 0.0984, -1.3819 -2.2047 0.0984, -1.6181 -1.9797 0.0984, -1.3819 -1.9797 0.0984, -1.6181 -1.9615 0.1029, -1.3819 -1.9615 0.1029, -1.6181 -1.9474 0.1153, -1.3819 -1.9474 0.1153, -1.6181 -1.9407 0.1329, -1.3819 -1.9407 0.1329, -0.6181 -1.8133 1.1389, -0.3819 -1.8133 1.1389, -0.3819 -1.7965 1.1827, -0.6181 -1.7965 1.1827, -0.3819 -1.7613 1.2138, -0.6181 -1.7613 1.2138, -0.3819 -1.7157 1.225, -0.6181 -1.7157 1.225, -0.6181 -1.6339 1.225, -0.3819 -1.6339 1.225, -0.6181 -1.681 1.1265, -0.6181 -1.6339 1.1265, -0.3819 -1.681 1.1265, -0.3819 -1.6339 1.1265, -0.6181 -1.6992 1.1221, -0.3819 -1.6992 1.1221, -0.6181 -1.7133 1.1096, -0.3819 -1.7133 1.1096, -0.6181 -1.72 1.0921, -0.3819 -1.72 1.0921, -0.6181 -1.8474 0.0861, -0.3819 -1.8474 0.0861, -0.3819 -1.8642 0.0422, -0.6181 -1.8642 0.0422, -0.3819 -1.8994 0.0112, -0.6181 -1.8994 0.0112, -0.3819 -1.945 0.0, -0.6181 -1.945 0.0, -0.6181 -2.2047 0.0, -0.3819 -2.2047 0.0, -0.6181 -2.2047 0.0984, -0.3819 -2.2047 0.0984, -0.6181 -1.9797 0.0984, -0.3819 -1.9797 0.0984, -0.6181 -1.9615 0.1029, -0.3819 -1.9615 0.1029, -0.6181 -1.9474 0.1153, -0.3819 -1.9474 0.1153, -0.6181 -1.9407 0.1329, -0.3819 -1.9407 0.1329, 1.3819 1.7157 1.225, 1.3819 1.6339 1.225, 1.6181 1.7157 1.225, 1.6181 1.6339 1.225, 1.6181 1.7613 1.2138, 1.3819 1.7613 1.2138, 1.6181 1.7965 1.1827, 1.3819 1.7965 1.1827, 1.6181 1.8133 1.1389, 1.3819 1.8133 1.1389, 1.3819 1.9407 0.1329, 1.6181 1.9407 0.1329, 1.3819 1.9474 0.1153, 1.6181 1.9474 0.1153, 1.3819 1.9615 0.1029, 1.6181 1.9615 0.1029, 1.3819 1.9797 0.0984, 1.6181 1.9797 0.0984, 1.3819 2.2047 0.0984, 1.6181 2.2047 0.0984, 1.3819 2.2047 0.0, 1.6181 2.2047 0.0, 1.3819 1.945 0.0, 1.6181 1.945 0.0, 1.6181 1.8994 0.0112, 1.3819 1.8994 0.0112, 1.6181 1.8642 0.0422, 1.3819 1.8642 0.0422, 1.6181 1.8474 0.0861, 1.3819 1.8474 0.0861, 1.3819 1.72 1.0921, 1.6181 1.72 1.0921, 1.3819 1.7133 1.1096, 1.6181 1.7133 1.1096, 1.3819 1.6992 1.1221, 1.6181 1.6992 1.1221, 1.3819 1.681 1.1265, 1.6181 1.681 1.1265, 1.3819 1.6339 1.1265, 1.6181 1.6339 1.1265, 1.3819 -1.8133 1.1389, 1.6181 -1.8133 1.1389, 1.6181 -1.7965 1.1827, 1.3819 -1.7965 1.1827, 1.6181 -1.7613 1.2138, 1.3819 -1.7613 1.2138, 1.6181 -1.7157 1.225, 1.3819 -1.7157 1.225, 1.3819 -1.6339 1.225, 1.6181 -1.6339 1.225, 1.3819 -1.681 1.1265, 1.3819 -1.6339 1.1265, 1.6181 -1.681 1.1265, 1.6181 -1.6339 1.1265, 1.3819 -1.6992 1.1221, 1.6181 -1.6992 1.1221, 1.3819 -1.7133 1.1096, 1.6181 -1.7133 1.1096, 1.3819 -1.72 1.0921, 1.6181 -1.72 1.0921, 1.3819 -1.8474 0.0861, 1.6181 -1.8474 0.0861, 1.6181 -1.8642 0.0422, 1.3819 -1.8642 0.0422, 1.6181 -1.8994 0.0112, 1.3819 -1.8994 0.0112, 1.6181 -1.945 0.0, 1.3819 -1.945 0.0, 1.3819 -2.2047 0.0, 1.6181 -2.2047 0.0, 1.3819 -2.2047 0.0984, 1.6181 -2.2047 0.0984, 1.3819 -1.9797 0.0984, 1.6181 -1.9797 0.0984, 1.3819 -1.9615 0.1029, 1.6181 -1.9615 0.1029, 1.3819 -1.9474 0.1153, 1.6181 -1.9474 0.1153, 1.3819 -1.9407 0.1329, 1.6181 -1.9407 0.1329
            ]
        }
        coordIndex [
            0,1,2,-1,2,1,3,-1,0,2,4,-1,0,4,5,-1,5,4,6,-1,5,6,7,-1,7,6,8,-1,7,8,9,-1,10,9,11,-1,11,9,8,-1,10,11,12,-1,12,11,13,-1,12,13,14,-1,14,13,15,-1,14,15,16,-1,16,15,17,-1,18,16,19,-1,19,16,17,-1,20,18,21,-1,21,18,19,-1,22,20,23,-1,23,20,21,-1,22,23,24,-1,22,24,25,-1,25,24,26,-1,25,26,27,-1,27,26,28,-1,27,28,29,-1,30,29,31,-1,31,29,28,-1,30,31,32,-1,32,31,33,-1,32,33,34,-1,34,33,35,-1,34,35,36,-1,36,35,37,-1,38,36,39,-1,39,36,37,-1,18,20,16,-1,16,20,22,-1,16,22,14,-1,14,22,25,-1,14,25,12,-1,12,25,27,-1,12,27,10,-1,10,27,29,-1,10,29,9,-1,9,29,30,-1,9,30,7,-1,7,30,32,-1,7,32,5,-1,5,32,34,-1,5,34,0,-1,0,34,36,-1,0,36,1,-1,1,36,38,-1,21,19,23,-1,23,19,17,-1,23,17,24,-1,24,17,15,-1,24,15,26,-1,26,15,13,-1,26,13,28,-1,28,13,11,-1,28,11,31,-1,31,11,8,-1,31,8,33,-1,33,8,6,-1,33,6,35,-1,35,6,4,-1,35,4,37,-1,37,4,2,-1,37,2,39,-1,39,2,3,-1,40,41,42,-1,40,42,43,-1,43,42,44,-1,43,44,45,-1,45,44,46,-1,45,46,47,-1,48,47,49,-1,49,47,46,-1,50,51,52,-1,52,51,53,-1,50,52,54,-1,54,52,55,-1,54,55,56,-1,56,55,57,-1,56,57,58,-1,58,57,59,-1,60,58,61,-1,61,58,59,-1,60,61,62,-1,60,62,63,-1,63,62,64,-1,63,64,65,-1,65,64,66,-1,65,66,67,-1,68,67,69,-1,69,67,66,-1,70,68,71,-1,71,68,69,-1,72,70,73,-1,73,70,71,-1,72,73,74,-1,74,73,75,-1,74,75,76,-1,76,75,77,-1,76,77,78,-1,78,77,79,-1,40,78,41,-1,41,78,79,-1,48,51,47,-1,47,51,50,-1,47,50,45,-1,45,50,54,-1,45,54,43,-1,43,54,56,-1,43,56,40,-1,40,56,58,-1,40,58,78,-1,78,58,60,-1,78,60,76,-1,76,60,63,-1,76,63,74,-1,74,63,65,-1,74,65,72,-1,72,65,67,-1,72,67,70,-1,70,67,68,-1,53,49,52,-1,52,49,46,-1,52,46,55,-1,55,46,44,-1,55,44,57,-1,57,44,42,-1,57,42,59,-1,59,42,41,-1,59,41,61,-1,61,41,79,-1,61,79,62,-1,62,79,77,-1,62,77,64,-1,64,77,75,-1,64,75,66,-1,66,75,73,-1,66,73,69,-1,69,73,71,-1,80,81,82,-1,80,82,83,-1,83,82,84,-1,83,84,85,-1,85,84,86,-1,85,86,87,-1,88,87,89,-1,89,87,86,-1,90,91,92,-1,92,91,93,-1,90,92,94,-1,94,92,95,-1,94,95,96,-1,96,95,97,-1,96,97,98,-1,98,97,99,-1,100,98,101,-1,101,98,99,-1,100,101,102,-1,100,102,103,-1,103,102,104,-1,103,104,105,-1,105,104,106,-1,105,106,107,-1,108,107,109,-1,109,107,106,-1,110,108,111,-1,111,108,109,-1,112,110,113,-1,113,110,111,-1,112,113,114,-1,114,113,115,-1,114,115,116,-1,116,115,117,-1,116,117,118,-1,118,117,119,-1,80,118,81,-1,81,118,119,-1,88,91,87,-1,87,91,90,-1,87,90,85,-1,85,90,94,-1,85,94,83,-1,83,94,96,-1,83,96,80,-1,80,96,98,-1,80,98,118,-1,118,98,100,-1,118,100,116,-1,116,100,103,-1,116,103,114,-1,114,103,105,-1,114,105,112,-1,112,105,107,-1,112,107,110,-1,110,107,108,-1,93,89,92,-1,92,89,86,-1,92,86,95,-1,95,86,84,-1,95,84,97,-1,97,84,82,-1,97,82,99,-1,99,82,81,-1,99,81,101,-1,101,81,119,-1,101,119,102,-1,102,119,117,-1,102,117,104,-1,104,117,115,-1,104,115,106,-1,106,115,113,-1,106,113,109,-1,109,113,111,-1,120,121,122,-1,122,121,123,-1,120,122,124,-1,120,124,125,-1,125,124,126,-1,125,126,127,-1,127,126,128,-1,127,128,129,-1,130,129,131,-1,131,129,128,-1,130,131,132,-1,132,131,133,-1,132,133,134,-1,134,133,135,-1,134,135,136,-1,136,135,137,-1,138,136,139,-1,139,136,137,-1,140,138,141,-1,141,138,139,-1,142,140,143,-1,143,140,141,-1,142,143,144,-1,142,144,145,-1,145,144,146,-1,145,146,147,-1,147,146,148,-1,147,148,149,-1,150,149,151,-1,151,149,148,-1,150,151,152,-1,152,151,153,-1,152,153,154,-1,154,153,155,-1,154,155,156,-1,156,155,157,-1,158,156,159,-1,159,156,157,-1,138,140,136,-1,136,140,142,-1,136,142,134,-1,134,142,145,-1,134,145,132,-1,132,145,147,-1,132,147,130,-1,130,147,149,-1,130,149,129,-1,129,149,150,-1,129,150,127,-1,127,150,152,-1,127,152,125,-1,125,152,154,-1,125,154,120,-1,120,154,156,-1,120,156,121,-1,121,156,158,-1,141,139,143,-1,143,139,137,-1,143,137,144,-1,144,137,135,-1,144,135,146,-1,146,135,133,-1,146,133,148,-1,148,133,131,-1,148,131,151,-1,151,131,128,-1,151,128,153,-1,153,128,126,-1,153,126,155,-1,155,126,124,-1,155,124,157,-1,157,124,122,-1,157,122,159,-1,159,122,123,-1,160,161,162,-1,160,162,163,-1,163,162,164,-1,163,164,165,-1,165,164,166,-1,165,166,167,-1,168,167,169,-1,169,167,166,-1,170,171,172,-1,172,171,173,-1,170,172,174,-1,174,172,175,-1,174,175,176,-1,176,175,177,-1,176,177,178,-1,178,177,179,-1,180,178,181,-1,181,178,179,-1,180,181,182,-1,180,182,183,-1,183,182,184,-1,183,184,185,-1,185,184,186,-1,185,186,187,-1,188,187,189,-1,189,187,186,-1,190,188,191,-1,191,188,189,-1,192,190,193,-1,193,190,191,-1,192,193,194,-1,194,193,195,-1,194,195,196,-1,196,195,197,-1,196,197,198,-1,198,197,199,-1,160,198,161,-1,161,198,199,-1,168,171,167,-1,167,171,170,-1,167,170,165,-1,165,170,174,-1,165,174,163,-1,163,174,176,-1,163,176,160,-1,160,176,178,-1,160,178,198,-1,198,178,180,-1,198,180,196,-1,196,180,183,-1,196,183,194,-1,194,183,185,-1,194,185,192,-1,192,185,187,-1,192,187,190,-1,190,187,188,-1,173,169,172,-1,172,169,166,-1,172,166,175,-1,175,166,164,-1,175,164,177,-1,177,164,162,-1,177,162,179,-1,179,162,161,-1,179,161,181,-1,181,161,199,-1,181,199,182,-1,182,199,197,-1,182,197,184,-1,184,197,195,-1,184,195,186,-1,186,195,193,-1,186,193,189,-1,189,193,191,-1,
        ]
    }
}
Shape{
    appearance Appearance {
        material  Material 	{
            diffuseColor 0.08235294117647059 0.08235294117647059 0.08235294117647059
            specularColor 0.0392156862745098 0.0392156862745098 0.0392156862745098
            ambientIntensity 0.0824
            transparency 0.0
            shininess 0.5
        }
    }
    geometry IndexedFaceSet {
        ccw TRUE
        solid FALSE
        coord DEF co Coordinate {
            point [
                -2.3919 -1.5258 0.0984, -0.249 -1.5258 0.0984, -0.6181 -1.6339 1.1265, -1.3819 -1.6339 1.1265, -1.6181 -1.6339 1.1265, -2.5 -1.6339 1.1265, 2.5 -1.6339 1.1265, 1.6181 -1.6339 1.1265, 2.3919 -1.5258 0.0984, 1.3819 -1.6339 1.1265, -0.3819 -1.6339 1.1265, 1.6181 -1.6339 1.225, 2.5 -1.6339 1.225, 2.3287 -1.4626 2.8543, -2.5 -1.6339 1.225, -1.6181 -1.6339 1.225, -2.3287 -1.4626 2.8543, -1.3819 -1.6339 1.225, -0.6181 -1.6339 1.225, -0.3819 -1.6339 1.225, 1.3819 -1.6339 1.225, 2.5 1.6339 1.1265, 2.3919 1.5258 0.0984, 1.6181 1.6339 1.1265, 1.3819 1.6339 1.1265, -1.3819 1.6339 1.1265, -0.249 1.5258 0.0984, -1.6181 1.6339 1.1265, -2.3919 1.5258 0.0984, -2.5 1.6339 1.1265, -1.6181 1.6339 1.225, -2.5 1.6339 1.225, -2.3287 1.4626 2.8543, 2.5 1.6339 1.225, 1.6181 1.6339 1.225, 2.3287 1.4626 2.8543, 1.3819 1.6339 1.225, -1.3819 1.6339 1.225, -2.3287 0.2744 2.8543, -2.337 0.2744 2.7756, -2.337 -0.2744 2.7756, -2.3287 -0.2744 2.8543, -2.3919 -0.1378 0.0984, 2.3919 -0.1378 0.0984, -1.8885 0.2744 2.8543, -1.8885 0.2744 2.7756, -1.8885 -0.2744 2.7756, -1.8885 -0.2744 2.8543, -1.6508 0.1372 2.7756, -1.7513 0.2377 2.7756, -1.6508 -0.1372 2.7756, -1.6141 -0.0 2.7756, -1.7513 -0.2377 2.7756, -1.7513 -0.2377 2.8543, -1.6508 -0.1372 2.8543, -1.6141 -0.0 2.8543, -1.6508 0.1372 2.8543, -1.7513 0.2377 2.8543, -1.2334 -1.0239 2.7756, -1.2334 -1.0239 2.8543, -1.2666 -0.9 2.7756, -1.2666 -0.9 2.8543, -1.3573 -0.8093 2.7756, -1.3573 -0.8093 2.8543, -1.4813 -0.776 2.7756, -1.4813 -0.776 2.8543, -1.6052 -0.8093 2.7756, -1.6052 -0.8093 2.8543, -1.6959 -0.9 2.7756, -1.6959 -0.9 2.8543, -1.7291 -1.0239 2.7756, -1.7291 -1.0239 2.8543, -1.6959 -1.1478 2.7756, -1.6959 -1.1478 2.8543, -1.6052 -1.2386 2.7756, -1.6052 -1.2386 2.8543, -1.4813 -1.2718 2.7756, -1.4813 -1.2718 2.8543, -1.3573 -1.2386 2.7756, -1.3573 -1.2386 2.8543, -1.2666 -1.1478 2.7756, -1.2666 -1.1478 2.8543
            ]
        }
        coordIndex [
            0,1,2,-1,2,3,0,-1,0,3,4,-1,0,4,5,-1,6,7,8,-1,8,7,9,-1,8,9,1,-1,1,9,10,-1,1,10,2,-1,11,12,13,-1,14,15,16,-1,16,15,17,-1,17,18,16,-1,16,18,19,-1,16,19,13,-1,13,19,20,-1,13,20,11,-1,21,22,23,-1,23,22,24,-1,24,22,25,-1,25,22,26,-1,25,26,27,-1,27,26,28,-1,27,28,29,-1,30,31,32,-1,33,34,35,-1,35,34,36,-1,35,36,32,-1,32,36,37,-1,32,37,30,-1,38,32,39,-1,39,32,31,-1,39,31,40,-1,40,31,14,-1,40,14,41,-1,41,14,16,-1,35,13,33,-1,33,13,12,-1,29,28,5,-1,5,28,42,-1,5,42,0,-1,22,21,43,-1,43,21,6,-1,43,6,8,-1,44,38,45,-1,45,38,39,-1,46,40,47,-1,47,40,41,-1,48,49,45,-1,50,51,52,-1,52,51,48,-1,52,48,46,-1,46,48,45,-1,46,45,40,-1,40,45,39,-1,46,47,52,-1,52,47,53,-1,52,53,50,-1,50,53,54,-1,50,54,51,-1,51,54,55,-1,51,55,48,-1,48,55,56,-1,48,56,49,-1,49,56,57,-1,49,57,45,-1,45,57,44,-1,58,59,60,-1,60,59,61,-1,60,61,62,-1,62,61,63,-1,62,63,64,-1,64,63,65,-1,64,65,66,-1,66,65,67,-1,66,67,68,-1,68,67,69,-1,68,69,70,-1,70,69,71,-1,70,71,72,-1,72,71,73,-1,72,73,74,-1,74,73,75,-1,74,75,76,-1,76,75,77,-1,76,77,78,-1,78,77,79,-1,78,79,80,-1,80,79,81,-1,80,81,58,-1,58,81,59,-1,
        ]
    }
}
Shape{
    appearance Appearance {
        material  Material 	{
            diffuseColor 0.7529411764705882 0.7529411764705882 0.7529411764705882
            specularColor 0.3764705882352941 0.3764705882352941 0.3764705882352941
            ambientIntensity 0.7529
            transparency 0.0
            shininess 0.5
        }
    }
    geometry IndexedFaceSet {
        ccw TRUE
        solid FALSE
        coord DEF co Coordinate {
            point [
                -1.3573 -1.2386 2.7756, -1.2666 -1.1478 2.7756, -1.4813 -1.0239 2.7756, -1.2334 -1.0239 2.7756, -1.2666 -0.9 2.7756, -1.6959 -1.1478 2.7756, -1.6052 -1.2386 2.7756, -1.4813 -1.2718 2.7756, -1.6052 -0.8093 2.7756, -1.6959 -0.9 2.7756, -1.7291 -1.0239 2.7756, -1.3573 -0.8093 2.7756, -1.4813 -0.776 2.7756, -0.8446 0.2609 0.1378, -0.8497 0.2609 0.1378, -0.8446 0.2609 0.0984, -0.8497 0.2609 0.0984, -1.0314 -0.1328 0.1378, -1.0314 -0.1328 0.0984, -0.993 -0.1328 0.1378, -0.993 -0.1328 0.0984, -0.9348 -0.0066 0.1378, -0.9348 -0.0066 0.0984, -0.7563 -0.0066 0.1378, -0.7563 -0.0066 0.0984, -0.6965 -0.1328 0.1378, -0.6965 -0.1328 0.0984, -0.6579 -0.1328 0.1378, -0.6579 -0.1328 0.0984, -0.9162 0.0338 0.1378, -0.7755 0.0338 0.1378, -0.8468 0.1842 0.1378, -0.9162 0.0338 0.0984, -0.8468 0.1842 0.0984, -0.7755 0.0338 0.0984, -0.4064 -0.1328 0.1378, -0.2844 -0.1328 0.1378, -0.4064 -0.1328 0.0984, -0.2844 -0.1328 0.0984, -0.2844 0.2609 0.1378, -0.2844 0.2609 0.0984, -0.3639 0.2609 0.1378, -0.3639 0.2609 0.0984, -0.4888 0.2467 0.1378, -0.4888 0.2467 0.0984, -0.4269 0.2585 0.0984, -0.4269 0.2585 0.1378, -0.6074 0.0591 0.1378, -0.6074 0.0591 0.0984, -0.6 0.121 0.0984, -0.6 0.121 0.1378, -0.5598 0.199 0.0984, -0.5598 0.199 0.1378, -0.4489 -0.1306 0.0984, -0.4489 -0.1306 0.1378, -0.5282 -0.1052 0.0984, -0.5282 -0.1052 0.1378, -0.5852 -0.0399 0.0984, -0.5852 -0.0399 0.1378, -0.5658 0.0102 0.1378, -0.5337 -0.0475 0.1378, -0.4774 -0.0824 0.1378, -0.4215 -0.0908 0.1378, -0.3649 -0.0924 0.1378, -0.3197 -0.0924 0.1378, -0.3197 0.2205 0.1378, -0.3474 0.2205 0.1378, -0.4083 0.2187 0.1378, -0.4684 0.2095 0.1378, -0.5119 0.1885 0.1378, -0.5548 0.1378 0.1378, -0.5721 0.0592 0.1378, -0.3197 0.2205 0.0984, -0.3197 -0.0924 0.0984, -0.3474 0.2205 0.0984, -0.4083 0.2187 0.0984, -0.4684 0.2095 0.0984, -0.5119 0.1885 0.0984, -0.5548 0.1378 0.0984, -0.5721 0.0592 0.0984, -0.5658 0.0102 0.0984, -0.5337 -0.0475 0.0984, -0.4774 -0.0824 0.0984, -0.4215 -0.0908 0.0984, -0.3649 -0.0924 0.0984, 0.0084 -0.1328 0.1378, 0.0084 0.2609 0.1378, 0.0084 -0.1328 0.0984, 0.0084 0.2609 0.0984, -0.2137 0.2609 0.1378, -0.2137 0.2609 0.0984, -0.2137 0.2205 0.1378, -0.2137 0.2205 0.0984, -0.027 0.2205 0.1378, -0.027 0.2205 0.0984, -0.027 0.0994 0.1378, -0.027 0.0994 0.0984, -0.2137 0.0994 0.1378, -0.2137 0.0994 0.0984, -0.2137 0.059 0.1378, -0.2137 0.059 0.0984, -0.027 0.059 0.1378, -0.027 0.059 0.0984, -0.027 -0.0924 0.1378, -0.027 -0.0924 0.0984, -0.2137 -0.0924 0.1378, -0.2137 -0.0924 0.0984, -0.2137 -0.1328 0.1378, -0.2137 -0.1328 0.0984, 0.0891 0.1887 0.1378, 0.0891 0.1887 0.0984, 0.1015 0.2041 0.0984, 0.1015 0.2041 0.1378, 0.1245 0.2259 0.0984, 0.1245 0.2259 0.1378, 0.1648 0.2508 0.0984, 0.1648 0.2508 0.1378, 0.2609 0.271 0.0984, 0.2609 0.271 0.1378, 0.12 0.165 0.1378, 0.12 0.165 0.0984, 0.2631 0.2306 0.1378, 0.2631 0.2306 0.0984, 0.2468 0.23 0.0984, 0.2468 0.23 0.1378, 0.221 0.2264 0.0984, 0.221 0.2264 0.1378, 0.1839 0.2144 0.0984, 0.1839 0.2144 0.1378, 0.4374 0.0637 0.1378, 0.4374 0.0637 0.0984, 0.4368 0.0795 0.0984, 0.4368 0.0795 0.1378, 0.4114 0.1541 0.0984, 0.4114 0.1541 0.1378, 0.3504 0.209 0.0984, 0.3504 0.209 0.1378, 0.2607 -0.1025 0.1378, 0.2607 -0.1025 0.0984, 0.2855 -0.1012 0.0984, 0.2855 -0.1012 0.1378, 0.3627 -0.0743 0.0984, 0.3627 -0.0743 0.1378, 0.417 -0.0175 0.0984, 0.417 -0.0175 0.1378, 0.12 -0.0369 0.1378, 0.12 -0.0369 0.0984, 0.1829 -0.0858 0.0984, 0.1829 -0.0858 0.1378, 0.0891 -0.0603 0.1378, 0.0891 -0.0603 0.0984, 0.2604 -0.1429 0.1378, 0.2604 -0.1429 0.0984, 0.2407 -0.1422 0.0984, 0.2407 -0.1422 0.1378, 0.2107 -0.1378 0.0984, 0.2094 -0.1376 0.1378, 0.2094 -0.1376 0.0984, 0.1646 -0.1224 0.0984, 0.1646 -0.1224 0.1378, 0.4228 -0.074 0.1378, 0.4228 -0.074 0.0984, 0.4103 -0.0873 0.0984, 0.4103 -0.0873 0.1378, 0.3879 -0.1059 0.0984, 0.3879 -0.1059 0.1378, 0.3496 -0.1269 0.0984, 0.3496 -0.1269 0.1378, 0.2885 -0.1378 0.0984, 0.4727 0.0664 0.1378, 0.4727 0.0664 0.0984, 0.4607 -0.0085 0.0984, 0.4607 -0.0085 0.1378, 0.2783 0.2704 0.0984, 0.2783 0.2704 0.1378, 0.38 0.2379 0.0984, 0.38 0.2379 0.1378, 0.4474 0.1669 0.0984, 0.4474 0.1669 0.1378, 0.7049 -0.1328 0.1378, 0.7049 0.2609 0.1378, 0.7049 -0.1328 0.0984, 0.7049 0.2609 0.0984, 0.6696 0.2609 0.1378, 0.6696 0.2609 0.0984, 0.6696 -0.0924 0.1378, 0.6696 -0.0924 0.0984, 0.5182 -0.0924 0.1378, 0.5182 -0.0924 0.0984, 0.5182 -0.1328 0.1378, 0.5182 -0.1328 0.0984
            ]
        }
        coordIndex [
            0,1,2,-1,2,1,3,-1,2,3,4,-1,5,6,2,-1,2,6,7,-1,2,7,0,-1,8,9,2,-1,2,9,10,-1,2,10,5,-1,4,11,2,-1,2,11,12,-1,2,12,8,-1,13,14,15,-1,15,14,16,-1,14,17,16,-1,16,17,18,-1,17,19,18,-1,18,19,20,-1,19,21,20,-1,20,21,22,-1,21,23,22,-1,22,23,24,-1,23,25,24,-1,24,25,26,-1,25,27,26,-1,26,27,28,-1,27,13,28,-1,28,13,15,-1,29,17,14,-1,13,30,14,-1,14,30,31,-1,14,31,29,-1,27,25,23,-1,19,17,21,-1,21,17,29,-1,21,29,23,-1,23,29,30,-1,23,30,27,-1,27,30,13,-1,29,31,32,-1,32,31,33,-1,30,29,34,-1,34,29,32,-1,31,30,33,-1,33,30,34,-1,35,36,37,-1,37,36,38,-1,36,39,38,-1,38,39,40,-1,39,41,40,-1,40,41,42,-1,43,44,45,-1,43,45,46,-1,46,45,42,-1,46,42,41,-1,47,48,49,-1,47,49,50,-1,50,49,51,-1,50,51,52,-1,52,51,44,-1,52,44,43,-1,35,37,53,-1,35,53,54,-1,54,53,55,-1,54,55,56,-1,56,55,57,-1,56,57,58,-1,58,57,48,-1,58,48,47,-1,59,60,56,-1,56,60,61,-1,56,61,54,-1,54,61,62,-1,54,62,35,-1,35,62,63,-1,35,63,36,-1,36,63,64,-1,36,64,39,-1,39,64,65,-1,39,65,41,-1,41,65,66,-1,41,66,46,-1,46,66,67,-1,46,67,43,-1,43,67,68,-1,43,68,52,-1,52,68,69,-1,52,69,50,-1,50,69,70,-1,50,70,47,-1,47,70,71,-1,47,71,58,-1,58,71,59,-1,58,59,56,-1,65,64,72,-1,72,64,73,-1,66,65,74,-1,74,65,72,-1,66,74,75,-1,66,75,67,-1,67,75,76,-1,67,76,68,-1,68,76,77,-1,68,77,69,-1,69,77,78,-1,69,78,70,-1,70,78,79,-1,70,79,71,-1,71,79,80,-1,71,80,59,-1,59,80,81,-1,59,81,60,-1,60,81,82,-1,60,82,61,-1,61,82,83,-1,61,83,62,-1,62,83,84,-1,62,84,63,-1,64,63,73,-1,73,63,84,-1,85,86,87,-1,87,86,88,-1,86,89,88,-1,88,89,90,-1,89,91,90,-1,90,91,92,-1,91,93,92,-1,92,93,94,-1,93,95,94,-1,94,95,96,-1,95,97,96,-1,96,97,98,-1,97,99,98,-1,98,99,100,-1,99,101,100,-1,100,101,102,-1,101,103,102,-1,102,103,104,-1,103,105,104,-1,104,105,106,-1,105,107,106,-1,106,107,108,-1,107,85,108,-1,108,85,87,-1,85,107,105,-1,105,103,85,-1,85,103,101,-1,85,101,86,-1,91,89,93,-1,93,89,86,-1,93,86,95,-1,95,86,101,-1,95,101,97,-1,97,101,99,-1,109,110,111,-1,109,111,112,-1,112,111,113,-1,112,113,114,-1,114,113,115,-1,114,115,116,-1,116,115,117,-1,116,117,118,-1,109,119,110,-1,110,119,120,-1,121,122,123,-1,121,123,124,-1,124,123,125,-1,124,125,126,-1,126,125,127,-1,126,127,128,-1,128,127,120,-1,128,120,119,-1,129,130,131,-1,129,131,132,-1,132,131,133,-1,132,133,134,-1,134,133,135,-1,134,135,136,-1,136,135,122,-1,136,122,121,-1,137,138,139,-1,137,139,140,-1,140,139,141,-1,140,141,142,-1,142,141,143,-1,142,143,144,-1,144,143,130,-1,144,130,129,-1,145,146,147,-1,145,147,148,-1,148,147,138,-1,148,138,137,-1,145,149,146,-1,146,149,150,-1,151,152,153,-1,151,153,154,-1,154,153,155,-1,154,155,156,-1,155,157,156,-1,156,157,158,-1,156,158,159,-1,159,158,150,-1,159,150,149,-1,160,161,162,-1,160,162,163,-1,163,162,164,-1,163,164,165,-1,165,164,166,-1,165,166,167,-1,167,166,151,-1,151,166,168,-1,151,168,152,-1,169,170,171,-1,169,171,172,-1,172,171,161,-1,172,161,160,-1,118,117,173,-1,118,173,174,-1,174,173,175,-1,174,175,176,-1,176,175,177,-1,176,177,178,-1,178,177,170,-1,178,170,169,-1,149,145,159,-1,159,145,148,-1,169,172,144,-1,144,172,142,-1,142,172,160,-1,142,160,163,-1,119,109,112,-1,119,112,128,-1,128,112,114,-1,128,114,116,-1,163,165,142,-1,142,165,167,-1,142,167,140,-1,140,167,151,-1,140,151,137,-1,137,151,154,-1,137,154,148,-1,148,154,156,-1,148,156,159,-1,144,129,169,-1,169,129,132,-1,169,132,178,-1,178,132,134,-1,178,134,176,-1,176,134,136,-1,176,136,174,-1,174,136,121,-1,174,121,118,-1,118,121,124,-1,118,124,116,-1,116,124,126,-1,116,126,128,-1,179,180,181,-1,181,180,182,-1,180,183,182,-1,182,183,184,-1,183,185,184,-1,184,185,186,-1,185,187,186,-1,186,187,188,-1,187,189,188,-1,188,189,190,-1,189,179,190,-1,190,179,181,-1,183,180,185,-1,185,180,179,-1,185,179,187,-1,187,179,189,-1,
        ]
    }
}
Shape{
    appearance Appearance {
        material  Material 	{
            diffuseColor 0.08235294117647059 0.08235294117647059 0.08235294117647059
            specularColor 0.0392156862745098 0.0392156862745098 0.0392156862745098
            ambientIntensity 0.0824
            transparency 0.0
            shininess 0.5
        }
    }
    geometry IndexedFaceSet {
        ccw TRUE
        solid FALSE
        coord DEF co Coordinate {
            point [
                -0.8468 0.1842 0.0984, -0.7755 0.0338 0.0984, -0.9162 0.0338 0.0984, -0.3197 0.2205 0.0984, -0.3197 -0.0924 0.0984, -0.3474 0.2205 0.0984, -0.3649 -0.0924 0.0984, -0.4083 0.2187 0.0984, -0.4215 -0.0908 0.0984, -0.4684 0.2095 0.0984, -0.4774 -0.0824 0.0984, -0.5337 -0.0475 0.0984, -0.5658 0.0102 0.0984, -0.5721 0.0592 0.0984, -0.5548 0.1378 0.0984, -0.5119 0.1885 0.0984
            ]
        }
        coordIndex [
            0,1,2,-1,3,4,5,-1,5,4,6,-1,5,6,7,-1,7,6,8,-1,7,8,9,-1,10,11,8,-1,8,11,12,-1,8,12,13,-1,13,14,8,-1,8,14,15,-1,8,15,9,-1,
        ]
    }
}