#VRML V2.0 utf8
# 3D model generated by easyeda2kicad.py (https://github.com/uPesy/easyeda2kicad.py)

Shape{
    appearance Appearance {
        material  Material 	{
            diffuseColor 0.20784313725490197 0.20784313725490197 0.20784313725490197
            specularColor 0.01568627450980392 0.01568627450980392 0.01568627450980392
            ambientIntensity 0.298
            transparency 0.0
            shininess 0.5
        }
    }
    geometry IndexedFaceSet {
        ccw TRUE
        solid FALSE
        coord DEF co Coordinate {
            point [
                0.9941 -2.7608 0.4528, 1.9508 -2.7608 0.4528, 1.9508 -1.186 0.4528, -1.0059 -5.8453 0.4528, -0.5059 -5.8453 0.4528, -0.5059 -5.123 0.4528, -1.1575 -1.1208 0.4528, -1.1575 -1.186 0.4528, -1.0059 -1.186 0.4528, -1.1575 -1.2512 0.4528, 0.8425 -1.1208 0.4528, 0.8425 -1.186 0.4528, 0.9941 -1.186 0.4528, 0.8425 -1.2512 0.4528, 0.6457 -1.1208 0.4528, 0.4941 2.6193 0.4528, 0.4941 -1.186 0.4528, 0.9941 2.6193 0.4528, -0.3543 -1.2512 0.4528, -0.5059 -2.7608 0.4528, -0.1575 -1.2512 0.4528, -0.0059 -2.7608 0.4528, -0.0059 -1.186 0.4528, -0.5059 2.6193 0.4528, -0.3543 -1.1208 0.4528, -0.0059 2.6193 0.4528, -0.1575 -1.1208 0.4528, -0.1575 -1.186 0.4528, -0.0059 -5.123 0.4528, -0.0059 -5.8453 0.4528, 0.4941 -5.123 0.4528, 1.9508 -5.8453 0.4528, 1.9508 -5.123 0.4528, 0.9941 -5.8453 0.4528, 0.9941 -5.123 0.4528, 0.4941 -5.8453 0.4528, -3.4055 -5.8453 0.4528, -1.0059 -5.123 0.4528, -3.4055 -5.123 0.4528, -1.0059 -2.7608 0.4528, -3.4055 -2.7608 0.4528, -0.6575 -4.2704 0.4528, -0.6575 -4.4008 0.4528, -0.8543 -4.4008 0.4528, -0.8543 -4.2704 0.4528, -0.5059 -1.186 0.4528, -0.3543 -1.186 0.4528, 0.1457 -4.4008 0.4528, 0.3425 -4.4008 0.4528, 0.3425 -4.2704 0.4528, 0.1457 -4.2704 0.4528, 0.4941 -2.7608 0.4528, 1.1457 -4.2704 0.4528, 1.3425 -4.2704 0.4528, 1.3425 -4.4008 0.4528, 1.1457 -4.4008 0.4528, -1.3543 -1.2512 0.4528, -3.4055 -1.186 0.4528, -1.3543 -1.186 0.4528, -3.4055 2.6193 0.4528, -1.3543 -1.1208 0.4528, -1.0059 2.6193 0.4528, 2.5591 2.6193 0.4528, 2.5591 -1.186 0.4528, 2.5591 -2.7608 0.4528, 2.5591 -5.123 0.4528, 2.5591 -5.8453 0.4528, 1.9508 2.6193 0.4528, 0.6457 -1.2512 0.4528, 0.6457 -1.186 0.4528, 0.6741 -1.7208 0.0197, 0.7517 -1.7295 0.0197, 0.5038 -2.3119 0.0197, 2.3425 4.9225 0.0197, 3.6417 4.9225 0.0197, 2.3425 4.0563 0.0197, 3.6417 -2.4361 0.0197, 1.546 -2.4313 0.0197, 0.7527 -2.4361 0.0197, 1.1427 -2.4313 0.0197, 0.8034 -2.4309 0.0197, 0.8797 -2.4046 0.0197, 0.8106 -1.7507 0.0197, 0.8651 -1.7872 0.0197, 0.9126 -1.8397 0.0197, 0.9698 -2.046 0.0197, 0.9619 -2.1313 0.0197, 0.9405 -2.199 0.0197, 0.7653 -2.3463 0.0197, 0.6918 -2.3545 0.0197, 0.8226 -2.3252 0.0197, 0.871 -2.2926 0.0197, 0.9079 -2.2536 0.0197, 0.5873 -2.3429 0.0197, 1.0339 -1.8513 0.0197, 0.9878 -1.7777 0.0197, 1.4404 -1.6439 0.0197, 0.5784 -1.7332 0.0197, 0.4897 -2.3041 0.0197, 0.4897 -1.7712 0.0197, 0.4129 4.0563 0.0197, 0.4897 -1.6655 0.0197, 0.9451 -1.9005 0.0197, 0.9661 -1.9848 0.0197, 0.9431 -2.3642 0.0197, 1.0022 -2.3019 0.0197, 1.1427 -2.3449 0.0197, 1.0442 -2.227 0.0197, 1.4404 -2.3449 0.0197, 0.9167 -1.7093 0.0197, 0.8419 -1.6663 0.0197, 0.7541 -1.6408 0.0197, 1.0679 -2.1437 0.0197, 1.0755 -2.0525 0.0197, 1.0641 -1.9405 0.0197, 0.675 -1.6343 0.0197, 0.5808 -1.6408 0.0197, 0.4897 -2.3905 0.0197, 0.5737 -2.425 0.0197, 0.4129 -2.4361 0.0197, 0.6532 -2.4361 0.0197, 0.4129 -6.0421 0.0197, 0.6849 -2.4406 0.0197, 0.7064 -2.4409 0.0197, 0.4941 4.0563 0.0197, 0.9941 4.0563 0.0197, 1.546 -1.6439 0.0197, 3.6417 -6.0421 0.0197, -0.9314 -2.4313 0.0197, -0.8345 -2.2155 0.0197, -0.7893 -2.286 0.0197, -0.0864 -2.4313 0.0197, 0.3361 -2.4313 0.0197, 0.3361 -1.6439 0.0197, -3.6417 4.9225 0.0197, -2.6969 4.9225 0.0197, -2.6969 4.0563 0.0197, -0.0672 -1.7304 0.0197, 0.2305 -1.7304 0.0197, 0.2305 -1.9896 0.0197, -0.7245 -2.348 0.0197, -0.6423 -2.3958 0.0197, -0.5516 -2.4228 0.0197, -0.0672 -1.6439 0.0197, -2.5256 4.0563 0.0197, -1.2291 -1.6439 0.0197, -1.3347 -1.6439 0.0197, -3.6417 -2.4361 0.0197, -0.2401 -1.6439 0.0197, -0.048 -1.9896 0.0197, -0.048 -2.0761 0.0197, 0.2305 -2.0761 0.0197, 0.2305 -2.3449 0.0197, -0.0864 -2.3449 0.0197, -0.2401 -2.4313 0.0197, -0.4542 -2.4313 0.0197, -2.0059 4.0563 0.0197, -1.5059 4.0563 0.0197, -1.0059 4.0563 0.0197, -1.642 -2.4313 0.0197, -1.5268 -2.4313 0.0197, -0.4623 -1.6439 0.0197, -0.576 -1.6561 0.0197, -0.8104 -1.8084 0.0197, -0.847 -1.8761 0.0197, -1.4471 -2.2105 0.0197, -1.1218 -2.2105 0.0197, -1.0467 -2.4313 0.0197, -0.5059 4.0563 0.0197, -0.0059 4.0563 0.0197, -0.6682 -1.6884 0.0197, -0.7539 -1.7459 0.0197, -0.7547 -1.7466 0.0197, -0.8681 -1.9536 0.0197, -0.8738 -2.0277 0.0197, -0.8628 -2.1331 0.0197, -3.6417 -6.0421 0.0197, -2.6969 4.9225 0.8071, -3.6417 4.9225 0.8071, 3.6417 4.9225 0.8071, 3.6417 -6.0421 0.8071, 2.3425 4.9225 0.8071, -3.6417 -6.0421 0.8071, -3.4843 -6.0421 0.2559, -3.4843 -6.0421 0.8071, 2.6378 -6.0421 0.2559, 2.6378 -6.0421 0.8071, 2.5591 -5.9634 0.8071, 2.5591 2.6193 0.8071, -3.4055 -5.9634 0.8071, -3.4055 2.6193 0.8071, 0.9941 4.0563 0.8071, 2.3425 4.0563 0.8071, 0.4941 4.0563 0.8071, -0.0059 4.0563 0.8071, -0.5059 4.0563 0.8071, -1.0059 4.0563 0.8071, -1.5059 4.0563 0.8071, -2.0059 4.0563 0.8071, -2.6969 4.0563 0.8071, -2.5256 4.0563 0.8071, -2.6969 4.0563 0.5315, 2.3425 4.0563 0.5315, -2.5256 4.0563 0.5315, -2.1575 4.0563 0.1969, -2.3543 4.0563 0.1969, -2.3543 4.0563 0.2559, -2.1575 4.0563 0.2559, -2.0059 4.0563 0.5315, -1.6575 4.0563 0.1969, -1.8543 4.0563 0.1969, -1.8543 4.0563 0.2559, -1.6575 4.0563 0.2559, -1.5059 4.0563 0.5315, -1.1575 4.0563 0.1969, -1.3543 4.0563 0.1969, -1.3543 4.0563 0.2559, -1.1575 4.0563 0.2559, -1.0059 4.0563 0.5315, -0.6575 4.0563 0.1969, -0.8543 4.0563 0.1969, -0.8543 4.0563 0.2559, -0.6575 4.0563 0.2559, -0.5059 4.0563 0.5315, -0.1575 4.0563 0.1969, -0.3543 4.0563 0.1969, -0.3543 4.0563 0.2559, -0.1575 4.0563 0.2559, -0.0059 4.0563 0.5315, 0.4941 4.0563 0.5315, 0.3425 4.0563 0.1969, 0.1457 4.0563 0.1969, 0.1457 4.0563 0.2559, 0.3425 4.0563 0.2559, 0.8425 4.0563 0.1969, 0.6457 4.0563 0.1969, 0.6457 4.0563 0.2559, 0.8425 4.0563 0.2559, 0.9941 4.0563 0.5315, 1.1457 4.0563 0.1969, 1.3425 4.0563 0.1969, 1.1457 4.0563 0.2559, 1.3425 4.0563 0.2559
            ]
        }
        coordIndex [
            0,1,2,-1,3,4,5,-1,6,7,8,-1,8,7,9,-1,10,11,12,-1,12,11,13,-1,14,15,16,-1,15,14,17,-1,18,19,20,-1,20,19,21,-1,20,21,22,-1,23,24,25,-1,25,24,26,-1,25,26,22,-1,22,26,27,-1,22,27,20,-1,5,4,28,-1,28,4,29,-1,28,29,30,-1,31,32,33,-1,33,32,34,-1,33,34,35,-1,36,37,38,-1,38,37,39,-1,38,39,40,-1,41,42,5,-1,5,42,37,-1,5,37,3,-1,3,37,36,-1,42,43,37,-1,37,43,44,-1,37,44,39,-1,39,44,19,-1,39,19,45,-1,45,19,18,-1,45,18,46,-1,47,28,48,-1,48,28,30,-1,48,30,49,-1,44,41,19,-1,19,41,5,-1,19,5,21,-1,21,5,28,-1,21,28,50,-1,50,28,47,-1,50,49,51,-1,51,49,30,-1,51,30,0,-1,29,35,30,-1,30,35,34,-1,30,34,0,-1,0,34,52,-1,0,52,1,-1,1,52,53,-1,1,53,32,-1,32,53,54,-1,32,54,34,-1,34,54,55,-1,34,55,52,-1,45,8,39,-1,39,8,9,-1,39,9,40,-1,40,9,56,-1,40,56,57,-1,57,56,58,-1,57,58,59,-1,59,58,60,-1,59,60,61,-1,62,2,63,-1,63,2,1,-1,63,1,64,-1,64,1,32,-1,64,32,65,-1,65,32,31,-1,65,31,66,-1,46,24,45,-1,45,24,23,-1,45,23,8,-1,8,23,61,-1,8,61,6,-1,6,61,60,-1,50,51,21,-1,21,51,16,-1,21,16,22,-1,22,16,15,-1,22,15,25,-1,14,10,17,-1,17,10,12,-1,17,12,67,-1,62,67,2,-1,2,67,12,-1,2,12,0,-1,0,12,13,-1,0,13,51,-1,51,13,68,-1,51,68,16,-1,16,68,69,-1,16,69,14,-1,70,71,72,-1,73,74,75,-1,75,74,76,-1,77,78,79,-1,79,78,80,-1,79,80,81,-1,71,82,72,-1,72,82,83,-1,72,83,84,-1,85,86,72,-1,72,86,87,-1,88,89,90,-1,90,89,91,-1,87,92,72,-1,72,92,91,-1,72,91,93,-1,93,91,89,-1,94,95,96,-1,70,72,97,-1,97,72,98,-1,97,98,99,-1,99,98,100,-1,99,100,101,-1,84,102,72,-1,72,102,103,-1,72,103,85,-1,96,95,100,-1,81,104,79,-1,79,104,105,-1,79,105,106,-1,106,105,107,-1,106,107,108,-1,95,109,100,-1,100,109,110,-1,100,110,111,-1,107,112,108,-1,108,112,113,-1,108,113,96,-1,96,113,114,-1,96,114,94,-1,111,115,100,-1,100,115,116,-1,100,116,101,-1,117,118,119,-1,119,118,120,-1,119,120,121,-1,120,122,121,-1,121,122,123,-1,121,123,78,-1,100,124,96,-1,96,124,125,-1,96,125,126,-1,126,125,75,-1,126,75,77,-1,77,75,76,-1,77,76,78,-1,78,76,127,-1,78,127,121,-1,128,129,130,-1,131,132,119,-1,119,132,133,-1,134,135,136,-1,137,138,139,-1,130,140,128,-1,128,140,141,-1,128,141,142,-1,137,134,143,-1,143,134,136,-1,143,136,144,-1,134,145,146,-1,134,146,147,-1,148,149,150,-1,151,152,150,-1,150,152,153,-1,150,153,148,-1,148,153,131,-1,148,131,154,-1,154,131,119,-1,154,119,155,-1,144,156,143,-1,143,156,157,-1,143,157,158,-1,159,160,119,-1,139,149,137,-1,137,149,148,-1,137,148,134,-1,134,148,161,-1,134,161,162,-1,145,163,164,-1,165,166,160,-1,160,166,167,-1,160,167,119,-1,119,167,128,-1,119,128,155,-1,155,128,142,-1,158,168,143,-1,143,168,169,-1,143,169,133,-1,133,169,100,-1,133,100,119,-1,119,100,98,-1,119,98,117,-1,162,170,134,-1,134,170,171,-1,134,171,145,-1,145,171,172,-1,145,172,163,-1,164,173,145,-1,145,173,174,-1,145,174,128,-1,128,174,175,-1,128,175,129,-1,146,159,147,-1,147,159,119,-1,147,119,176,-1,176,119,121,-1,135,134,177,-1,177,134,178,-1,74,179,76,-1,76,179,180,-1,76,180,127,-1,181,179,73,-1,73,179,74,-1,176,182,147,-1,147,182,178,-1,147,178,134,-1,183,184,182,-1,182,176,183,-1,183,176,121,-1,183,121,185,-1,185,121,127,-1,185,127,186,-1,186,127,180,-1,187,186,188,-1,188,186,180,-1,188,180,179,-1,184,189,182,-1,182,189,190,-1,182,190,178,-1,191,188,192,-1,192,188,179,-1,192,179,181,-1,191,193,188,-1,188,193,194,-1,188,194,190,-1,190,194,195,-1,195,196,190,-1,190,196,197,-1,190,197,198,-1,177,178,199,-1,199,178,190,-1,199,190,200,-1,200,190,198,-1,136,135,201,-1,201,135,177,-1,201,177,199,-1,192,181,202,-1,202,181,73,-1,202,73,75,-1,201,199,200,-1,201,203,136,-1,136,203,144,-1,204,156,205,-1,205,156,144,-1,205,144,206,-1,206,144,203,-1,206,203,207,-1,207,203,208,-1,207,208,204,-1,204,208,156,-1,209,157,210,-1,210,157,156,-1,210,156,211,-1,211,156,208,-1,211,208,212,-1,212,208,213,-1,212,213,209,-1,209,213,157,-1,214,158,215,-1,215,158,157,-1,215,157,216,-1,216,157,213,-1,216,213,217,-1,217,213,218,-1,217,218,214,-1,214,218,158,-1,219,168,220,-1,220,168,158,-1,220,158,221,-1,221,158,218,-1,221,218,222,-1,222,218,223,-1,222,223,219,-1,219,223,168,-1,224,169,225,-1,225,169,168,-1,225,168,226,-1,226,168,223,-1,226,223,227,-1,227,223,228,-1,227,228,224,-1,224,228,169,-1,229,124,230,-1,230,124,100,-1,230,100,231,-1,231,100,169,-1,231,169,232,-1,232,169,228,-1,232,228,233,-1,233,228,229,-1,233,229,230,-1,234,125,235,-1,235,125,124,-1,235,124,236,-1,236,124,229,-1,236,229,237,-1,237,229,238,-1,237,238,234,-1,234,238,125,-1,125,239,240,-1,239,125,241,-1,241,125,238,-1,241,238,242,-1,242,238,202,-1,242,202,240,-1,240,202,75,-1,240,75,125,-1,201,200,203,-1,203,200,198,-1,203,198,208,-1,208,198,197,-1,208,197,213,-1,213,197,196,-1,213,196,218,-1,218,196,195,-1,218,195,223,-1,223,195,194,-1,223,194,228,-1,228,194,193,-1,228,193,229,-1,229,193,191,-1,229,191,238,-1,238,191,192,-1,238,192,202,-1,
        ]
    }
}
Shape{
    appearance Appearance {
        material  Material 	{
            diffuseColor 0.6666666666666666 0.6666666666666666 0.6666666666666666
            specularColor 0.4666666666666667 0.4666666666666667 0.4666666666666667
            ambientIntensity 0.6667
            transparency 0.0
            shininess 0.5
        }
    }
    geometry IndexedFaceSet {
        ccw TRUE
        solid FALSE
        coord DEF co Coordinate {
            point [
                0.3425 4.8516 0.0, 0.3425 4.3398 0.0, 0.1457 4.8516 0.0, 0.1457 4.3398 0.0, 0.3425 4.8516 0.0591, 0.1457 4.8516 0.0591, 0.3425 4.3398 0.0591, 0.1457 4.3398 0.0591, 0.3425 4.3347 0.0597, 0.1457 4.3347 0.0597, 0.3425 4.3299 0.0617, 0.1457 4.3299 0.0617, 0.3425 4.3259 0.0648, 0.1457 4.3259 0.0648, 0.3425 4.3227 0.0689, 0.1457 4.3227 0.0689, 0.3425 4.3208 0.0736, 0.1457 4.3208 0.0736, 0.3425 4.3201 0.0787, 0.1457 4.3201 0.0787, 0.3425 4.3201 0.1181, 0.1457 4.3201 0.1181, 0.1457 4.3154 0.1538, 0.3425 4.3154 0.1538, 0.1457 4.3016 0.187, 0.3425 4.3016 0.187, 0.1457 4.2797 0.2155, 0.3425 4.2797 0.2155, 0.1457 4.2512 0.2374, 0.3425 4.2512 0.2374, 0.1457 4.218 0.2512, 0.3425 4.218 0.2512, 0.1457 4.1823 0.2559, 0.3425 4.1823 0.2559, 0.3425 4.0563 0.2559, 0.1457 4.0563 0.2559, 0.3425 4.1823 0.1969, 0.3425 4.0563 0.1969, 0.1457 4.1823 0.1969, 0.1457 4.0563 0.1969, 0.3425 4.2027 0.1942, 0.1457 4.2027 0.1942, 0.3425 4.2217 0.1863, 0.1457 4.2217 0.1863, 0.3425 4.238 0.1738, 0.1457 4.238 0.1738, 0.3425 4.2505 0.1575, 0.1457 4.2505 0.1575, 0.3425 4.2584 0.1385, 0.1457 4.2584 0.1385, 0.3425 4.261 0.1181, 0.1457 4.261 0.1181, 0.3425 4.261 0.0787, 0.1457 4.261 0.0787, 0.1457 4.2637 0.0584, 0.3425 4.2637 0.0584, 0.1457 4.2716 0.0394, 0.3425 4.2716 0.0394, 0.1457 4.2841 0.0231, 0.3425 4.2841 0.0231, 0.1457 4.3004 0.0105, 0.3425 4.3004 0.0105, 0.1457 4.3194 0.0027, 0.3425 4.3194 0.0027, -0.1575 4.8516 0.0, -0.1575 4.3398 0.0, -0.3543 4.8516 0.0, -0.3543 4.3398 0.0, -0.1575 4.8516 0.0591, -0.3543 4.8516 0.0591, -0.1575 4.3398 0.0591, -0.3543 4.3398 0.0591, -0.1575 4.3347 0.0597, -0.3543 4.3347 0.0597, -0.1575 4.3299 0.0617, -0.3543 4.3299 0.0617, -0.1575 4.3259 0.0648, -0.3543 4.3259 0.0648, -0.1575 4.3227 0.0689, -0.3543 4.3227 0.0689, -0.1575 4.3208 0.0736, -0.3543 4.3208 0.0736, -0.1575 4.3201 0.0787, -0.3543 4.3201 0.0787, -0.1575 4.3201 0.1181, -0.3543 4.3201 0.1181, -0.3543 4.3154 0.1538, -0.1575 4.3154 0.1538, -0.3543 4.3016 0.187, -0.1575 4.3016 0.187, -0.3543 4.2797 0.2155, -0.1575 4.2797 0.2155, -0.3543 4.2512 0.2374, -0.1575 4.2512 0.2374, -0.3543 4.218 0.2512, -0.1575 4.218 0.2512, -0.3543 4.1823 0.2559, -0.1575 4.1823 0.2559, -0.1575 4.0563 0.2559, -0.3543 4.0563 0.2559, -0.1575 4.1823 0.1969, -0.1575 4.0563 0.1969, -0.3543 4.1823 0.1969, -0.3543 4.0563 0.1969, -0.1575 4.2027 0.1942, -0.3543 4.2027 0.1942, -0.1575 4.2217 0.1863, -0.3543 4.2217 0.1863, -0.1575 4.238 0.1738, -0.3543 4.238 0.1738, -0.1575 4.2505 0.1575, -0.3543 4.2505 0.1575, -0.1575 4.2584 0.1385, -0.3543 4.2584 0.1385, -0.1575 4.261 0.1181, -0.3543 4.261 0.1181, -0.1575 4.261 0.0787, -0.3543 4.261 0.0787, -0.3543 4.2637 0.0584, -0.1575 4.2637 0.0584, -0.3543 4.2716 0.0394, -0.1575 4.2716 0.0394, -0.3543 4.2841 0.0231, -0.1575 4.2841 0.0231, -0.3543 4.3004 0.0105, -0.1575 4.3004 0.0105, -0.3543 4.3194 0.0027, -0.1575 4.3194 0.0027, -0.6575 4.8516 0.0, -0.6575 4.3398 0.0, -0.8543 4.8516 0.0, -0.8543 4.3398 0.0, -0.6575 4.8516 0.0591, -0.8543 4.8516 0.0591, -0.6575 4.3398 0.0591, -0.8543 4.3398 0.0591, -0.6575 4.3347 0.0597, -0.8543 4.3347 0.0597, -0.6575 4.3299 0.0617, -0.8543 4.3299 0.0617, -0.6575 4.3259 0.0648, -0.8543 4.3259 0.0648, -0.6575 4.3227 0.0689, -0.8543 4.3227 0.0689, -0.6575 4.3208 0.0736, -0.8543 4.3208 0.0736, -0.6575 4.3201 0.0787, -0.8543 4.3201 0.0787, -0.6575 4.3201 0.1181, -0.8543 4.3201 0.1181, -0.8543 4.3154 0.1538, -0.6575 4.3154 0.1538, -0.8543 4.3016 0.187, -0.6575 4.3016 0.187, -0.8543 4.2797 0.2155, -0.6575 4.2797 0.2155, -0.8543 4.2512 0.2374, -0.6575 4.2512 0.2374, -0.8543 4.218 0.2512, -0.6575 4.218 0.2512, -0.8543 4.1823 0.2559, -0.6575 4.1823 0.2559, -0.6575 4.0563 0.2559, -0.8543 4.0563 0.2559, -0.6575 4.1823 0.1969, -0.6575 4.0563 0.1969, -0.8543 4.1823 0.1969, -0.8543 4.0563 0.1969, -0.6575 4.2027 0.1942, -0.8543 4.2027 0.1942, -0.6575 4.2217 0.1863, -0.8543 4.2217 0.1863, -0.6575 4.238 0.1738, -0.8543 4.238 0.1738, -0.6575 4.2505 0.1575, -0.8543 4.2505 0.1575, -0.6575 4.2584 0.1385, -0.8543 4.2584 0.1385, -0.6575 4.261 0.1181, -0.8543 4.261 0.1181, -0.6575 4.261 0.0787, -0.8543 4.261 0.0787, -0.8543 4.2637 0.0584, -0.6575 4.2637 0.0584, -0.8543 4.2716 0.0394, -0.6575 4.2716 0.0394, -0.8543 4.2841 0.0231, -0.6575 4.2841 0.0231, -0.8543 4.3004 0.0105, -0.6575 4.3004 0.0105, -0.8543 4.3194 0.0027, -0.6575 4.3194 0.0027, -1.1575 4.8516 0.0, -1.1575 4.3398 0.0, -1.3543 4.8516 0.0, -1.3543 4.3398 0.0, -1.1575 4.8516 0.0591, -1.3543 4.8516 0.0591, -1.1575 4.3398 0.0591, -1.3543 4.3398 0.0591, -1.1575 4.3347 0.0597, -1.3543 4.3347 0.0597, -1.1575 4.3299 0.0617, -1.3543 4.3299 0.0617, -1.1575 4.3259 0.0648, -1.3543 4.3259 0.0648, -1.1575 4.3227 0.0689, -1.3543 4.3227 0.0689, -1.1575 4.3208 0.0736, -1.3543 4.3208 0.0736, -1.1575 4.3201 0.0787, -1.3543 4.3201 0.0787, -1.1575 4.3201 0.1181, -1.3543 4.3201 0.1181, -1.3543 4.3154 0.1538, -1.1575 4.3154 0.1538, -1.3543 4.3016 0.187, -1.1575 4.3016 0.187, -1.3543 4.2797 0.2155, -1.1575 4.2797 0.2155, -1.3543 4.2512 0.2374, -1.1575 4.2512 0.2374, -1.3543 4.218 0.2512, -1.1575 4.218 0.2512, -1.3543 4.1823 0.2559, -1.1575 4.1823 0.2559, -1.1575 4.0563 0.2559, -1.3543 4.0563 0.2559, -1.1575 4.1823 0.1969, -1.1575 4.0563 0.1969, -1.3543 4.1823 0.1969, -1.3543 4.0563 0.1969, -1.1575 4.2027 0.1942, -1.3543 4.2027 0.1942, -1.1575 4.2217 0.1863, -1.3543 4.2217 0.1863, -1.1575 4.238 0.1738, -1.3543 4.238 0.1738, -1.1575 4.2505 0.1575, -1.3543 4.2505 0.1575, -1.1575 4.2584 0.1385, -1.3543 4.2584 0.1385, -1.1575 4.261 0.1181, -1.3543 4.261 0.1181, -1.1575 4.261 0.0787, -1.3543 4.261 0.0787, -1.3543 4.2637 0.0584, -1.1575 4.2637 0.0584, -1.3543 4.2716 0.0394, -1.1575 4.2716 0.0394, -1.3543 4.2841 0.0231, -1.1575 4.2841 0.0231, -1.3543 4.3004 0.0105, -1.1575 4.3004 0.0105, -1.3543 4.3194 0.0027, -1.1575 4.3194 0.0027, -1.6575 4.8516 0.0, -1.6575 4.3398 0.0, -1.8543 4.8516 0.0, -1.8543 4.3398 0.0, -1.6575 4.8516 0.0591, -1.8543 4.8516 0.0591, -1.6575 4.3398 0.0591, -1.8543 4.3398 0.0591, -1.6575 4.3347 0.0597, -1.8543 4.3347 0.0597, -1.6575 4.3299 0.0617, -1.8543 4.3299 0.0617, -1.6575 4.3259 0.0648, -1.8543 4.3259 0.0648, -1.6575 4.3227 0.0689, -1.8543 4.3227 0.0689, -1.6575 4.3208 0.0736, -1.8543 4.3208 0.0736, -1.6575 4.3201 0.0787, -1.8543 4.3201 0.0787, -1.6575 4.3201 0.1181, -1.8543 4.3201 0.1181, -1.8543 4.3154 0.1538, -1.6575 4.3154 0.1538, -1.8543 4.3016 0.187, -1.6575 4.3016 0.187, -1.8543 4.2797 0.2155, -1.6575 4.2797 0.2155, -1.8543 4.2512 0.2374, -1.6575 4.2512 0.2374, -1.8543 4.218 0.2512, -1.6575 4.218 0.2512, -1.8543 4.1823 0.2559, -1.6575 4.1823 0.2559, -1.6575 4.0563 0.2559, -1.8543 4.0563 0.2559, -1.6575 4.1823 0.1969, -1.6575 4.0563 0.1969, -1.8543 4.1823 0.1969, -1.8543 4.0563 0.1969, -1.6575 4.2027 0.1942, -1.8543 4.2027 0.1942, -1.6575 4.2217 0.1863, -1.8543 4.2217 0.1863, -1.6575 4.238 0.1738, -1.8543 4.238 0.1738, -1.6575 4.2505 0.1575, -1.8543 4.2505 0.1575, -1.6575 4.2584 0.1385, -1.8543 4.2584 0.1385, -1.6575 4.261 0.1181, -1.8543 4.261 0.1181, -1.6575 4.261 0.0787, -1.8543 4.261 0.0787, -1.8543 4.2637 0.0584, -1.6575 4.2637 0.0584, -1.8543 4.2716 0.0394, -1.6575 4.2716 0.0394, -1.8543 4.2841 0.0231, -1.6575 4.2841 0.0231, -1.8543 4.3004 0.0105, -1.6575 4.3004 0.0105, -1.8543 4.3194 0.0027, -1.6575 4.3194 0.0027, -2.1575 4.8516 0.0, -2.1575 4.3398 0.0, -2.3543 4.8516 0.0, -2.3543 4.3398 0.0, -2.1575 4.8516 0.0591, -2.3543 4.8516 0.0591, -2.1575 4.3398 0.0591, -2.3543 4.3398 0.0591, -2.1575 4.3347 0.0597, -2.3543 4.3347 0.0597, -2.1575 4.3299 0.0617, -2.3543 4.3299 0.0617, -2.1575 4.3259 0.0648, -2.3543 4.3259 0.0648, -2.1575 4.3227 0.0689, -2.3543 4.3227 0.0689, -2.1575 4.3208 0.0736, -2.3543 4.3208 0.0736, -2.1575 4.3201 0.0787, -2.3543 4.3201 0.0787, -2.1575 4.3201 0.1181, -2.3543 4.3201 0.1181, -2.3543 4.3154 0.1538, -2.1575 4.3154 0.1538, -2.3543 4.3016 0.187, -2.1575 4.3016 0.187, -2.3543 4.2797 0.2155, -2.1575 4.2797 0.2155, -2.3543 4.2512 0.2374, -2.1575 4.2512 0.2374, -2.3543 4.218 0.2512, -2.1575 4.218 0.2512, -2.3543 4.1823 0.2559, -2.1575 4.1823 0.2559, -2.1575 4.0563 0.2559, -2.3543 4.0563 0.2559, -2.1575 4.1823 0.1969, -2.1575 4.0563 0.1969, -2.3543 4.1823 0.1969, -2.3543 4.0563 0.1969, -2.1575 4.2027 0.1942, -2.3543 4.2027 0.1942, -2.1575 4.2217 0.1863, -2.3543 4.2217 0.1863, -2.1575 4.238 0.1738, -2.3543 4.238 0.1738, -2.1575 4.2505 0.1575, -2.3543 4.2505 0.1575, -2.1575 4.2584 0.1385, -2.3543 4.2584 0.1385, -2.1575 4.261 0.1181, -2.3543 4.261 0.1181, -2.1575 4.261 0.0787, -2.3543 4.261 0.0787, -2.3543 4.2637 0.0584, -2.1575 4.2637 0.0584, -2.3543 4.2716 0.0394, -2.1575 4.2716 0.0394, -2.3543 4.2841 0.0231, -2.1575 4.2841 0.0231, -2.3543 4.3004 0.0105, -2.1575 4.3004 0.0105, -2.3543 4.3194 0.0027, -2.1575 4.3194 0.0027, 0.8425 4.8516 0.0, 0.8425 4.3398 0.0, 0.6457 4.8516 0.0, 0.6457 4.3398 0.0, 0.8425 4.8516 0.0591, 0.6457 4.8516 0.0591, 0.8425 4.3398 0.0591, 0.6457 4.3398 0.0591, 0.8425 4.3347 0.0597, 0.6457 4.3347 0.0597, 0.8425 4.3299 0.0617, 0.6457 4.3299 0.0617, 0.8425 4.3259 0.0648, 0.6457 4.3259 0.0648, 0.8425 4.3227 0.0689, 0.6457 4.3227 0.0689, 0.8425 4.3208 0.0736, 0.6457 4.3208 0.0736, 0.8425 4.3201 0.0787, 0.6457 4.3201 0.0787, 0.8425 4.3201 0.1181, 0.6457 4.3201 0.1181, 0.6457 4.3154 0.1538, 0.8425 4.3154 0.1538, 0.6457 4.3016 0.187, 0.8425 4.3016 0.187, 0.6457 4.2797 0.2155, 0.8425 4.2797 0.2155, 0.6457 4.2512 0.2374, 0.8425 4.2512 0.2374, 0.6457 4.218 0.2512, 0.8425 4.218 0.2512, 0.6457 4.1823 0.2559, 0.8425 4.1823 0.2559, 0.8425 4.0563 0.2559, 0.6457 4.0563 0.2559, 0.8425 4.1823 0.1969, 0.8425 4.0563 0.1969, 0.6457 4.1823 0.1969, 0.6457 4.0563 0.1969, 0.8425 4.2027 0.1942, 0.6457 4.2027 0.1942, 0.8425 4.2217 0.1863, 0.6457 4.2217 0.1863, 0.8425 4.238 0.1738, 0.6457 4.238 0.1738, 0.8425 4.2505 0.1575, 0.6457 4.2505 0.1575, 0.8425 4.2584 0.1385, 0.6457 4.2584 0.1385, 0.8425 4.261 0.1181, 0.6457 4.261 0.1181, 0.8425 4.261 0.0787, 0.6457 4.261 0.0787, 0.6457 4.2637 0.0584, 0.8425 4.2637 0.0584, 0.6457 4.2716 0.0394, 0.8425 4.2716 0.0394, 0.6457 4.2841 0.0231, 0.8425 4.2841 0.0231, 0.6457 4.3004 0.0105, 0.8425 4.3004 0.0105, 0.6457 4.3194 0.0027, 0.8425 4.3194 0.0027, 1.3425 4.8516 0.0, 1.3425 4.3398 0.0, 1.1457 4.8516 0.0, 1.1457 4.3398 0.0, 1.3425 4.8516 0.0591, 1.1457 4.8516 0.0591, 1.3425 4.3398 0.0591, 1.1457 4.3398 0.0591, 1.3425 4.3347 0.0597, 1.1457 4.3347 0.0597, 1.3425 4.3299 0.0617, 1.1457 4.3299 0.0617, 1.3425 4.3259 0.0648, 1.1457 4.3259 0.0648, 1.3425 4.3227 0.0689, 1.1457 4.3227 0.0689, 1.3425 4.3208 0.0736, 1.1457 4.3208 0.0736, 1.3425 4.3201 0.0787, 1.1457 4.3201 0.0787, 1.3425 4.3201 0.1181, 1.1457 4.3201 0.1181, 1.1457 4.3154 0.1538, 1.3425 4.3154 0.1538, 1.1457 4.3016 0.187, 1.3425 4.3016 0.187, 1.1457 4.2797 0.2155, 1.3425 4.2797 0.2155, 1.1457 4.2512 0.2374, 1.3425 4.2512 0.2374, 1.1457 4.218 0.2512, 1.3425 4.218 0.2512, 1.1457 4.1823 0.2559, 1.3425 4.1823 0.2559, 1.3425 4.0563 0.2559, 1.1457 4.0563 0.2559, 1.3425 4.1823 0.1969, 1.3425 4.0563 0.1969, 1.1457 4.1823 0.1969, 1.1457 4.0563 0.1969, 1.3425 4.2027 0.1942, 1.1457 4.2027 0.1942, 1.3425 4.2217 0.1863, 1.1457 4.2217 0.1863, 1.3425 4.238 0.1738, 1.1457 4.238 0.1738, 1.3425 4.2505 0.1575, 1.1457 4.2505 0.1575, 1.3425 4.2584 0.1385, 1.1457 4.2584 0.1385, 1.3425 4.261 0.1181, 1.1457 4.261 0.1181, 1.3425 4.261 0.0787, 1.1457 4.261 0.0787, 1.1457 4.2637 0.0584, 1.3425 4.2637 0.0584, 1.1457 4.2716 0.0394, 1.3425 4.2716 0.0394, 1.1457 4.2841 0.0231, 1.3425 4.2841 0.0231, 1.1457 4.3004 0.0105, 1.3425 4.3004 0.0105, 1.1457 4.3194 0.0027, 1.3425 4.3194 0.0027
            ]
        }
        coordIndex [
            0,1,2,-1,2,1,3,-1,4,0,5,-1,5,0,2,-1,6,4,7,-1,7,4,5,-1,6,7,8,-1,8,7,9,-1,8,9,10,-1,10,9,11,-1,10,11,12,-1,12,11,13,-1,12,13,14,-1,14,13,15,-1,14,15,16,-1,16,15,17,-1,16,17,18,-1,18,17,19,-1,20,18,21,-1,21,18,19,-1,20,21,22,-1,20,22,23,-1,23,22,24,-1,23,24,25,-1,25,24,26,-1,25,26,27,-1,27,26,28,-1,27,28,29,-1,29,28,30,-1,29,30,31,-1,31,30,32,-1,31,32,33,-1,34,33,35,-1,35,33,32,-1,36,37,38,-1,38,37,39,-1,36,38,40,-1,40,38,41,-1,40,41,42,-1,42,41,43,-1,42,43,44,-1,44,43,45,-1,44,45,46,-1,46,45,47,-1,46,47,48,-1,48,47,49,-1,48,49,50,-1,50,49,51,-1,52,50,53,-1,53,50,51,-1,52,53,54,-1,52,54,55,-1,55,54,56,-1,55,56,57,-1,57,56,58,-1,57,58,59,-1,59,58,60,-1,59,60,61,-1,61,60,62,-1,61,62,63,-1,63,62,3,-1,63,3,1,-1,34,37,33,-1,33,37,36,-1,33,36,31,-1,31,36,40,-1,31,40,29,-1,29,40,42,-1,29,42,27,-1,27,42,44,-1,27,44,25,-1,25,44,46,-1,25,46,23,-1,23,46,48,-1,23,48,20,-1,20,48,50,-1,20,50,18,-1,18,50,52,-1,18,52,16,-1,16,52,55,-1,16,55,14,-1,14,55,57,-1,14,57,12,-1,12,57,59,-1,12,59,10,-1,10,59,61,-1,10,61,8,-1,8,61,63,-1,8,63,6,-1,6,63,1,-1,6,1,4,-1,4,1,0,-1,39,35,38,-1,38,35,32,-1,38,32,41,-1,41,32,30,-1,41,30,43,-1,43,30,28,-1,43,28,45,-1,45,28,26,-1,45,26,47,-1,47,26,24,-1,47,24,49,-1,49,24,22,-1,49,22,51,-1,51,22,21,-1,51,21,53,-1,53,21,19,-1,53,19,54,-1,54,19,17,-1,54,17,56,-1,56,17,15,-1,56,15,58,-1,58,15,13,-1,58,13,60,-1,60,13,11,-1,60,11,62,-1,62,11,9,-1,62,9,3,-1,3,9,7,-1,3,7,2,-1,2,7,5,-1,64,65,66,-1,66,65,67,-1,68,64,69,-1,69,64,66,-1,70,68,71,-1,71,68,69,-1,70,71,72,-1,72,71,73,-1,72,73,74,-1,74,73,75,-1,74,75,76,-1,76,75,77,-1,76,77,78,-1,78,77,79,-1,78,79,80,-1,80,79,81,-1,80,81,82,-1,82,81,83,-1,84,82,85,-1,85,82,83,-1,84,85,86,-1,84,86,87,-1,87,86,88,-1,87,88,89,-1,89,88,90,-1,89,90,91,-1,91,90,92,-1,91,92,93,-1,93,92,94,-1,93,94,95,-1,95,94,96,-1,95,96,97,-1,98,97,99,-1,99,97,96,-1,100,101,102,-1,102,101,103,-1,100,102,104,-1,104,102,105,-1,104,105,106,-1,106,105,107,-1,106,107,108,-1,108,107,109,-1,108,109,110,-1,110,109,111,-1,110,111,112,-1,112,111,113,-1,112,113,114,-1,114,113,115,-1,116,114,117,-1,117,114,115,-1,116,117,118,-1,116,118,119,-1,119,118,120,-1,119,120,121,-1,121,120,122,-1,121,122,123,-1,123,122,124,-1,123,124,125,-1,125,124,126,-1,125,126,127,-1,127,126,67,-1,127,67,65,-1,98,101,97,-1,97,101,100,-1,97,100,95,-1,95,100,104,-1,95,104,93,-1,93,104,106,-1,93,106,91,-1,91,106,108,-1,91,108,89,-1,89,108,110,-1,89,110,87,-1,87,110,112,-1,87,112,84,-1,84,112,114,-1,84,114,82,-1,82,114,116,-1,82,116,80,-1,80,116,119,-1,80,119,78,-1,78,119,121,-1,78,121,76,-1,76,121,123,-1,76,123,74,-1,74,123,125,-1,74,125,72,-1,72,125,127,-1,72,127,70,-1,70,127,65,-1,70,65,68,-1,68,65,64,-1,103,99,102,-1,102,99,96,-1,102,96,105,-1,105,96,94,-1,105,94,107,-1,107,94,92,-1,107,92,109,-1,109,92,90,-1,109,90,111,-1,111,90,88,-1,111,88,113,-1,113,88,86,-1,113,86,115,-1,115,86,85,-1,115,85,117,-1,117,85,83,-1,117,83,118,-1,118,83,81,-1,118,81,120,-1,120,81,79,-1,120,79,122,-1,122,79,77,-1,122,77,124,-1,124,77,75,-1,124,75,126,-1,126,75,73,-1,126,73,67,-1,67,73,71,-1,67,71,66,-1,66,71,69,-1,128,129,130,-1,130,129,131,-1,132,128,133,-1,133,128,130,-1,134,132,135,-1,135,132,133,-1,134,135,136,-1,136,135,137,-1,136,137,138,-1,138,137,139,-1,138,139,140,-1,140,139,141,-1,140,141,142,-1,142,141,143,-1,142,143,144,-1,144,143,145,-1,144,145,146,-1,146,145,147,-1,148,146,149,-1,149,146,147,-1,148,149,150,-1,148,150,151,-1,151,150,152,-1,151,152,153,-1,153,152,154,-1,153,154,155,-1,155,154,156,-1,155,156,157,-1,157,156,158,-1,157,158,159,-1,159,158,160,-1,159,160,161,-1,162,161,163,-1,163,161,160,-1,164,165,166,-1,166,165,167,-1,164,166,168,-1,168,166,169,-1,168,169,170,-1,170,169,171,-1,170,171,172,-1,172,171,173,-1,172,173,174,-1,174,173,175,-1,174,175,176,-1,176,175,177,-1,176,177,178,-1,178,177,179,-1,180,178,181,-1,181,178,179,-1,180,181,182,-1,180,182,183,-1,183,182,184,-1,183,184,185,-1,185,184,186,-1,185,186,187,-1,187,186,188,-1,187,188,189,-1,189,188,190,-1,189,190,191,-1,191,190,131,-1,191,131,129,-1,162,165,161,-1,161,165,164,-1,161,164,159,-1,159,164,168,-1,159,168,157,-1,157,168,170,-1,157,170,155,-1,155,170,172,-1,155,172,153,-1,153,172,174,-1,153,174,151,-1,151,174,176,-1,151,176,148,-1,148,176,178,-1,148,178,146,-1,146,178,180,-1,146,180,144,-1,144,180,183,-1,144,183,142,-1,142,183,185,-1,142,185,140,-1,140,185,187,-1,140,187,138,-1,138,187,189,-1,138,189,136,-1,136,189,191,-1,136,191,134,-1,134,191,129,-1,134,129,132,-1,132,129,128,-1,167,163,166,-1,166,163,160,-1,166,160,169,-1,169,160,158,-1,169,158,171,-1,171,158,156,-1,171,156,173,-1,173,156,154,-1,173,154,175,-1,175,154,152,-1,175,152,177,-1,177,152,150,-1,177,150,179,-1,179,150,149,-1,179,149,181,-1,181,149,147,-1,181,147,182,-1,182,147,145,-1,182,145,184,-1,184,145,143,-1,184,143,186,-1,186,143,141,-1,186,141,188,-1,188,141,139,-1,188,139,190,-1,190,139,137,-1,190,137,131,-1,131,137,135,-1,131,135,130,-1,130,135,133,-1,192,193,194,-1,194,193,195,-1,196,192,197,-1,197,192,194,-1,198,196,199,-1,199,196,197,-1,198,199,200,-1,200,199,201,-1,200,201,202,-1,202,201,203,-1,202,203,204,-1,204,203,205,-1,204,205,206,-1,206,205,207,-1,206,207,208,-1,208,207,209,-1,208,209,210,-1,210,209,211,-1,212,210,213,-1,213,210,211,-1,212,213,214,-1,212,214,215,-1,215,214,216,-1,215,216,217,-1,217,216,218,-1,217,218,219,-1,219,218,220,-1,219,220,221,-1,221,220,222,-1,221,222,223,-1,223,222,224,-1,223,224,225,-1,226,225,227,-1,227,225,224,-1,228,229,230,-1,230,229,231,-1,228,230,232,-1,232,230,233,-1,232,233,234,-1,234,233,235,-1,234,235,236,-1,236,235,237,-1,236,237,238,-1,238,237,239,-1,238,239,240,-1,240,239,241,-1,240,241,242,-1,242,241,243,-1,244,242,245,-1,245,242,243,-1,244,245,246,-1,244,246,247,-1,247,246,248,-1,247,248,249,-1,249,248,250,-1,249,250,251,-1,251,250,252,-1,251,252,253,-1,253,252,254,-1,253,254,255,-1,255,254,195,-1,255,195,193,-1,226,229,225,-1,225,229,228,-1,225,228,223,-1,223,228,232,-1,223,232,221,-1,221,232,234,-1,221,234,219,-1,219,234,236,-1,219,236,217,-1,217,236,238,-1,217,238,215,-1,215,238,240,-1,215,240,212,-1,212,240,242,-1,212,242,210,-1,210,242,244,-1,210,244,208,-1,208,244,247,-1,208,247,206,-1,206,247,249,-1,206,249,204,-1,204,249,251,-1,204,251,202,-1,202,251,253,-1,202,253,200,-1,200,253,255,-1,200,255,198,-1,198,255,193,-1,198,193,196,-1,196,193,192,-1,231,227,230,-1,230,227,224,-1,230,224,233,-1,233,224,222,-1,233,222,235,-1,235,222,220,-1,235,220,237,-1,237,220,218,-1,237,218,239,-1,239,218,216,-1,239,216,241,-1,241,216,214,-1,241,214,243,-1,243,214,213,-1,243,213,245,-1,245,213,211,-1,245,211,246,-1,246,211,209,-1,246,209,248,-1,248,209,207,-1,248,207,250,-1,250,207,205,-1,250,205,252,-1,252,205,203,-1,252,203,254,-1,254,203,201,-1,254,201,195,-1,195,201,199,-1,195,199,194,-1,194,199,197,-1,256,257,258,-1,258,257,259,-1,260,256,261,-1,261,256,258,-1,262,260,263,-1,263,260,261,-1,262,263,264,-1,264,263,265,-1,264,265,266,-1,266,265,267,-1,266,267,268,-1,268,267,269,-1,268,269,270,-1,270,269,271,-1,270,271,272,-1,272,271,273,-1,272,273,274,-1,274,273,275,-1,276,274,277,-1,277,274,275,-1,276,277,278,-1,276,278,279,-1,279,278,280,-1,279,280,281,-1,281,280,282,-1,281,282,283,-1,283,282,284,-1,283,284,285,-1,285,284,286,-1,285,286,287,-1,287,286,288,-1,287,288,289,-1,290,289,291,-1,291,289,288,-1,292,293,294,-1,294,293,295,-1,292,294,296,-1,296,294,297,-1,296,297,298,-1,298,297,299,-1,298,299,300,-1,300,299,301,-1,300,301,302,-1,302,301,303,-1,302,303,304,-1,304,303,305,-1,304,305,306,-1,306,305,307,-1,308,306,309,-1,309,306,307,-1,308,309,310,-1,308,310,311,-1,311,310,312,-1,311,312,313,-1,313,312,314,-1,313,314,315,-1,315,314,316,-1,315,316,317,-1,317,316,318,-1,317,318,319,-1,319,318,259,-1,319,259,257,-1,290,293,289,-1,289,293,292,-1,289,292,287,-1,287,292,296,-1,287,296,285,-1,285,296,298,-1,285,298,283,-1,283,298,300,-1,283,300,281,-1,281,300,302,-1,281,302,279,-1,279,302,304,-1,279,304,276,-1,276,304,306,-1,276,306,274,-1,274,306,308,-1,274,308,272,-1,272,308,311,-1,272,311,270,-1,270,311,313,-1,270,313,268,-1,268,313,315,-1,268,315,266,-1,266,315,317,-1,266,317,264,-1,264,317,319,-1,264,319,262,-1,262,319,257,-1,262,257,260,-1,260,257,256,-1,295,291,294,-1,294,291,288,-1,294,288,297,-1,297,288,286,-1,297,286,299,-1,299,286,284,-1,299,284,301,-1,301,284,282,-1,301,282,303,-1,303,282,280,-1,303,280,305,-1,305,280,278,-1,305,278,307,-1,307,278,277,-1,307,277,309,-1,309,277,275,-1,309,275,310,-1,310,275,273,-1,310,273,312,-1,312,273,271,-1,312,271,314,-1,314,271,269,-1,314,269,316,-1,316,269,267,-1,316,267,318,-1,318,267,265,-1,318,265,259,-1,259,265,263,-1,259,263,258,-1,258,263,261,-1,320,321,322,-1,322,321,323,-1,324,320,325,-1,325,320,322,-1,326,324,327,-1,327,324,325,-1,326,327,328,-1,328,327,329,-1,328,329,330,-1,330,329,331,-1,330,331,332,-1,332,331,333,-1,332,333,334,-1,334,333,335,-1,334,335,336,-1,336,335,337,-1,336,337,338,-1,338,337,339,-1,340,338,341,-1,341,338,339,-1,340,341,342,-1,340,342,343,-1,343,342,344,-1,343,344,345,-1,345,344,346,-1,345,346,347,-1,347,346,348,-1,347,348,349,-1,349,348,350,-1,349,350,351,-1,351,350,352,-1,351,352,353,-1,354,353,355,-1,355,353,352,-1,356,357,358,-1,358,357,359,-1,356,358,360,-1,360,358,361,-1,360,361,362,-1,362,361,363,-1,362,363,364,-1,364,363,365,-1,364,365,366,-1,366,365,367,-1,366,367,368,-1,368,367,369,-1,368,369,370,-1,370,369,371,-1,372,370,373,-1,373,370,371,-1,372,373,374,-1,372,374,375,-1,375,374,376,-1,375,376,377,-1,377,376,378,-1,377,378,379,-1,379,378,380,-1,379,380,381,-1,381,380,382,-1,381,382,383,-1,383,382,323,-1,383,323,321,-1,354,357,353,-1,353,357,356,-1,353,356,351,-1,351,356,360,-1,351,360,349,-1,349,360,362,-1,349,362,347,-1,347,362,364,-1,347,364,345,-1,345,364,366,-1,345,366,343,-1,343,366,368,-1,343,368,340,-1,340,368,370,-1,340,370,338,-1,338,370,372,-1,338,372,336,-1,336,372,375,-1,336,375,334,-1,334,375,377,-1,334,377,332,-1,332,377,379,-1,332,379,330,-1,330,379,381,-1,330,381,328,-1,328,381,383,-1,328,383,326,-1,326,383,321,-1,326,321,324,-1,324,321,320,-1,359,355,358,-1,358,355,352,-1,358,352,361,-1,361,352,350,-1,361,350,363,-1,363,350,348,-1,363,348,365,-1,365,348,346,-1,365,346,367,-1,367,346,344,-1,367,344,369,-1,369,344,342,-1,369,342,371,-1,371,342,341,-1,371,341,373,-1,373,341,339,-1,373,339,374,-1,374,339,337,-1,374,337,376,-1,376,337,335,-1,376,335,378,-1,378,335,333,-1,378,333,380,-1,380,333,331,-1,380,331,382,-1,382,331,329,-1,382,329,323,-1,323,329,327,-1,323,327,322,-1,322,327,325,-1,384,385,386,-1,386,385,387,-1,388,384,389,-1,389,384,386,-1,390,388,391,-1,391,388,389,-1,390,391,392,-1,392,391,393,-1,392,393,394,-1,394,393,395,-1,394,395,396,-1,396,395,397,-1,396,397,398,-1,398,397,399,-1,398,399,400,-1,400,399,401,-1,400,401,402,-1,402,401,403,-1,404,402,405,-1,405,402,403,-1,404,405,406,-1,404,406,407,-1,407,406,408,-1,407,408,409,-1,409,408,410,-1,409,410,411,-1,411,410,412,-1,411,412,413,-1,413,412,414,-1,413,414,415,-1,415,414,416,-1,415,416,417,-1,418,417,419,-1,419,417,416,-1,420,421,422,-1,422,421,423,-1,420,422,424,-1,424,422,425,-1,424,425,426,-1,426,425,427,-1,426,427,428,-1,428,427,429,-1,428,429,430,-1,430,429,431,-1,430,431,432,-1,432,431,433,-1,432,433,434,-1,434,433,435,-1,436,434,437,-1,437,434,435,-1,436,437,438,-1,436,438,439,-1,439,438,440,-1,439,440,441,-1,441,440,442,-1,441,442,443,-1,443,442,444,-1,443,444,445,-1,445,444,446,-1,445,446,447,-1,447,446,387,-1,447,387,385,-1,418,421,417,-1,417,421,420,-1,417,420,415,-1,415,420,424,-1,415,424,413,-1,413,424,426,-1,413,426,411,-1,411,426,428,-1,411,428,409,-1,409,428,430,-1,409,430,407,-1,407,430,432,-1,407,432,404,-1,404,432,434,-1,404,434,402,-1,402,434,436,-1,402,436,400,-1,400,436,439,-1,400,439,398,-1,398,439,441,-1,398,441,396,-1,396,441,443,-1,396,443,394,-1,394,443,445,-1,394,445,392,-1,392,445,447,-1,392,447,390,-1,390,447,385,-1,390,385,388,-1,388,385,384,-1,423,419,422,-1,422,419,416,-1,422,416,425,-1,425,416,414,-1,425,414,427,-1,427,414,412,-1,427,412,429,-1,429,412,410,-1,429,410,431,-1,431,410,408,-1,431,408,433,-1,433,408,406,-1,433,406,435,-1,435,406,405,-1,435,405,437,-1,437,405,403,-1,437,403,438,-1,438,403,401,-1,438,401,440,-1,440,401,399,-1,440,399,442,-1,442,399,397,-1,442,397,444,-1,444,397,395,-1,444,395,446,-1,446,395,393,-1,446,393,387,-1,387,393,391,-1,387,391,386,-1,386,391,389,-1,448,449,450,-1,450,449,451,-1,452,448,453,-1,453,448,450,-1,454,452,455,-1,455,452,453,-1,454,455,456,-1,456,455,457,-1,456,457,458,-1,458,457,459,-1,458,459,460,-1,460,459,461,-1,460,461,462,-1,462,461,463,-1,462,463,464,-1,464,463,465,-1,464,465,466,-1,466,465,467,-1,468,466,469,-1,469,466,467,-1,468,469,470,-1,468,470,471,-1,471,470,472,-1,471,472,473,-1,473,472,474,-1,473,474,475,-1,475,474,476,-1,475,476,477,-1,477,476,478,-1,477,478,479,-1,479,478,480,-1,479,480,481,-1,482,481,483,-1,483,481,480,-1,484,485,486,-1,486,485,487,-1,484,486,488,-1,488,486,489,-1,488,489,490,-1,490,489,491,-1,490,491,492,-1,492,491,493,-1,492,493,494,-1,494,493,495,-1,494,495,496,-1,496,495,497,-1,496,497,498,-1,498,497,499,-1,500,498,501,-1,501,498,499,-1,500,501,502,-1,500,502,503,-1,503,502,504,-1,503,504,505,-1,505,504,506,-1,505,506,507,-1,507,506,508,-1,507,508,509,-1,509,508,510,-1,509,510,511,-1,511,510,451,-1,511,451,449,-1,482,485,481,-1,481,485,484,-1,481,484,479,-1,479,484,488,-1,479,488,477,-1,477,488,490,-1,477,490,475,-1,475,490,492,-1,475,492,473,-1,473,492,494,-1,473,494,471,-1,471,494,496,-1,471,496,468,-1,468,496,498,-1,468,498,466,-1,466,498,500,-1,466,500,464,-1,464,500,503,-1,464,503,462,-1,462,503,505,-1,462,505,460,-1,460,505,507,-1,460,507,458,-1,458,507,509,-1,458,509,456,-1,456,509,511,-1,456,511,454,-1,454,511,449,-1,454,449,452,-1,452,449,448,-1,487,483,486,-1,486,483,480,-1,486,480,489,-1,489,480,478,-1,489,478,491,-1,491,478,476,-1,491,476,493,-1,493,476,474,-1,493,474,495,-1,495,474,472,-1,495,472,497,-1,497,472,470,-1,497,470,499,-1,499,470,469,-1,499,469,501,-1,501,469,467,-1,501,467,502,-1,502,467,465,-1,502,465,504,-1,504,465,463,-1,504,463,506,-1,506,463,461,-1,506,461,508,-1,508,461,459,-1,508,459,510,-1,510,459,457,-1,510,457,451,-1,451,457,455,-1,451,455,450,-1,450,455,453,-1,
        ]
    }
}
Shape{
    appearance Appearance {
        material  Material 	{
            diffuseColor 1.0 1.0 1.0
            specularColor 0.8784313725490196 0.8784313725490196 0.8784313725490196
            ambientIntensity 1.0
            transparency 0.0
            shininess 0.5
        }
    }
    geometry IndexedFaceSet {
        ccw TRUE
        solid FALSE
        coord DEF co Coordinate {
            point [
                -1.3347 -1.6439 0.0276, -1.642 -2.4313 0.0276, -1.3347 -1.6439 0.0197, -1.642 -2.4313 0.0197, -1.5268 -2.4313 0.0276, -1.5268 -2.4313 0.0197, -1.4471 -2.2105 0.0276, -1.4471 -2.2105 0.0197, -1.1218 -2.2105 0.0276, -1.1218 -2.2105 0.0197, -1.0467 -2.4313 0.0276, -1.0467 -2.4313 0.0197, -0.9314 -2.4313 0.0276, -0.9314 -2.4313 0.0197, -1.2291 -1.6439 0.0276, -1.2291 -1.6439 0.0197, -1.1484 -2.1241 0.0276, -1.4117 -2.1241 0.0276, -1.2659 -1.7952 0.0276, -1.2735 -1.7679 0.0276, -1.2785 -1.74 0.0276, -1.281 -1.74 0.0276, -1.2862 -1.7678 0.0276, -1.2932 -1.7952 0.0276, -1.1484 -2.1241 0.0197, -1.4117 -2.1241 0.0197, -1.2659 -1.7952 0.0197, -1.2735 -1.7679 0.0197, -1.2785 -1.74 0.0197, -1.281 -1.74 0.0197, -1.2862 -1.7678 0.0197, -1.2932 -1.7952 0.0197, -0.4542 -2.4313 0.0276, -0.2401 -2.4313 0.0276, -0.4542 -2.4313 0.0197, -0.2401 -2.4313 0.0197, -0.2401 -1.6439 0.0276, -0.2401 -1.6439 0.0197, -0.4623 -1.6439 0.0276, -0.4623 -1.6439 0.0197, -0.8738 -2.0277 0.0276, -0.8738 -2.0277 0.0197, -0.8681 -1.9536 0.0197, -0.8681 -1.9536 0.0276, -0.847 -1.8761 0.0197, -0.847 -1.8761 0.0276, -0.8104 -1.8084 0.0197, -0.8104 -1.8084 0.0276, -0.7547 -1.7466 0.0197, -0.7547 -1.7466 0.0276, -0.7539 -1.7459 0.0197, -0.7539 -1.7459 0.0276, -0.6682 -1.6884 0.0197, -0.6682 -1.6884 0.0276, -0.576 -1.6561 0.0197, -0.576 -1.6561 0.0276, -0.5516 -2.4228 0.0197, -0.5516 -2.4228 0.0276, -0.6423 -2.3958 0.0197, -0.6423 -2.3958 0.0276, -0.7245 -2.348 0.0197, -0.7245 -2.348 0.0276, -0.7893 -2.286 0.0197, -0.7893 -2.286 0.0276, -0.8345 -2.2155 0.0197, -0.8345 -2.2155 0.0276, -0.8628 -2.1331 0.0197, -0.8628 -2.1331 0.0276, -0.7158 -1.8408 0.0276, -0.6775 -1.8002 0.0276, -0.62 -1.763 0.0276, -0.555 -1.7403 0.0276, -0.4618 -1.7304 0.0276, -0.3457 -1.7304 0.0276, -0.3457 -2.3449 0.0276, -0.4575 -2.3449 0.0276, -0.5405 -2.3372 0.0276, -0.6068 -2.3165 0.0276, -0.6605 -2.2846 0.0276, -0.7047 -2.241 0.0276, -0.7379 -2.1867 0.0276, -0.761 -2.1127 0.0276, -0.7682 -2.03 0.0276, -0.7615 -1.9516 0.0276, -0.7431 -1.8893 0.0276, -0.4618 -1.7304 0.0197, -0.3457 -1.7304 0.0197, -0.555 -1.7403 0.0197, -0.62 -1.763 0.0197, -0.6775 -1.8002 0.0197, -0.7158 -1.8408 0.0197, -0.7431 -1.8893 0.0197, -0.7615 -1.9516 0.0197, -0.7682 -2.03 0.0197, -0.761 -2.1127 0.0197, -0.7379 -2.1867 0.0197, -0.7047 -2.241 0.0197, -0.6605 -2.2846 0.0197, -0.6068 -2.3165 0.0197, -0.5405 -2.3372 0.0197, -0.4575 -2.3449 0.0197, -0.3457 -2.3449 0.0197, -0.0864 -2.3449 0.0276, -0.0864 -2.4313 0.0276, -0.0864 -2.3449 0.0197, -0.0864 -2.4313 0.0197, 0.3361 -2.4313 0.0276, 0.3361 -2.4313 0.0197, 0.3361 -1.6439 0.0276, 0.3361 -1.6439 0.0197, -0.0672 -1.6439 0.0276, -0.0672 -1.6439 0.0197, -0.0672 -1.7304 0.0276, -0.0672 -1.7304 0.0197, 0.2305 -1.7304 0.0276, 0.2305 -1.7304 0.0197, 0.2305 -1.9896 0.0276, 0.2305 -1.9896 0.0197, -0.048 -1.9896 0.0276, -0.048 -1.9896 0.0197, -0.048 -2.0761 0.0276, -0.048 -2.0761 0.0197, 0.2305 -2.0761 0.0276, 0.2305 -2.0761 0.0197, 0.2305 -2.3449 0.0276, 0.2305 -2.3449 0.0197, 0.4897 -2.3041 0.0276, 0.4897 -2.3905 0.0276, 0.4897 -2.3041 0.0197, 0.4897 -2.3905 0.0197, 0.5737 -2.425 0.0276, 0.7064 -2.4409 0.0276, 0.7064 -2.4409 0.0197, 0.6849 -2.4406 0.0197, 0.6849 -2.4406 0.0276, 0.6532 -2.4361 0.0197, 0.5737 -2.425 0.0197, 0.7527 -2.4361 0.0197, 0.8034 -2.4309 0.0276, 0.8034 -2.4309 0.0197, 0.8797 -2.4046 0.0276, 0.8797 -2.4046 0.0197, 0.9431 -2.3642 0.0276, 0.9431 -2.3642 0.0197, 1.0022 -2.3019 0.0276, 1.0022 -2.3019 0.0197, 1.0442 -2.227 0.0276, 1.0442 -2.227 0.0197, 1.0679 -2.1437 0.0276, 1.0679 -2.1437 0.0197, 1.0755 -2.0525 0.0276, 1.0755 -2.0525 0.0197, 0.675 -1.6343 0.0276, 0.675 -1.6343 0.0197, 0.7541 -1.6408 0.0197, 0.7541 -1.6408 0.0276, 0.8419 -1.6663 0.0197, 0.8419 -1.6663 0.0276, 0.9167 -1.7093 0.0197, 0.9167 -1.7093 0.0276, 0.9878 -1.7777 0.0197, 0.9878 -1.7777 0.0276, 1.0339 -1.8513 0.0197, 1.0339 -1.8513 0.0276, 1.0641 -1.9405 0.0197, 1.0641 -1.9405 0.0276, 0.4897 -1.6655 0.0276, 0.4897 -1.6655 0.0197, 0.5808 -1.6408 0.0197, 0.5808 -1.6408 0.0276, 0.4897 -1.7712 0.0276, 0.4897 -1.7712 0.0197, 0.6741 -1.7208 0.0276, 0.6741 -1.7208 0.0197, 0.5784 -1.7332 0.0197, 0.5784 -1.7332 0.0276, 0.9698 -2.046 0.0276, 0.9698 -2.046 0.0197, 0.9661 -1.9848 0.0197, 0.9661 -1.9848 0.0276, 0.9451 -1.9005 0.0197, 0.9451 -1.9005 0.0276, 0.9126 -1.8397 0.0197, 0.9126 -1.8397 0.0276, 0.8651 -1.7872 0.0197, 0.8651 -1.7872 0.0276, 0.8106 -1.7507 0.0197, 0.8106 -1.7507 0.0276, 0.7517 -1.7295 0.0197, 0.7517 -1.7295 0.0276, 0.6918 -2.3545 0.0276, 0.6918 -2.3545 0.0197, 0.7653 -2.3463 0.0197, 0.7653 -2.3463 0.0276, 0.8226 -2.3252 0.0197, 0.8226 -2.3252 0.0276, 0.871 -2.2926 0.0197, 0.871 -2.2926 0.0276, 0.9079 -2.2536 0.0197, 0.9079 -2.2536 0.0276, 0.9405 -2.199 0.0197, 0.9405 -2.199 0.0276, 0.9619 -2.1313 0.0197, 0.9619 -2.1313 0.0276, 0.5038 -2.3119 0.0197, 0.5038 -2.3119 0.0276, 0.5873 -2.3429 0.0197, 0.5873 -2.3429 0.0276, 1.1427 -2.3449 0.0276, 1.1427 -2.4313 0.0276, 1.1427 -2.3449 0.0197, 1.1427 -2.4313 0.0197, 1.546 -2.4313 0.0276, 1.546 -2.4313 0.0197, 1.546 -1.6439 0.0276, 1.546 -1.6439 0.0197, 1.4404 -1.6439 0.0276, 1.4404 -1.6439 0.0197, 1.4404 -2.3449 0.0276, 1.4404 -2.3449 0.0197
            ]
        }
        coordIndex [
            0,1,2,-1,2,1,3,-1,1,4,3,-1,3,4,5,-1,4,6,5,-1,5,6,7,-1,6,8,7,-1,7,8,9,-1,8,10,9,-1,9,10,11,-1,10,12,11,-1,11,12,13,-1,12,14,13,-1,13,14,15,-1,14,0,15,-1,15,0,2,-1,16,8,17,-1,17,8,6,-1,18,14,16,-1,16,14,12,-1,16,12,8,-1,8,12,10,-1,18,19,14,-1,14,19,20,-1,14,20,0,-1,0,20,21,-1,0,21,22,-1,22,23,0,-1,0,23,17,-1,0,17,1,-1,1,17,6,-1,1,6,4,-1,16,17,24,-1,24,17,25,-1,18,16,26,-1,26,16,24,-1,18,26,27,-1,18,27,19,-1,19,27,28,-1,19,28,20,-1,21,20,29,-1,29,20,28,-1,21,29,30,-1,21,30,22,-1,22,30,31,-1,22,31,23,-1,17,23,25,-1,25,23,31,-1,32,33,34,-1,34,33,35,-1,33,36,35,-1,35,36,37,-1,36,38,37,-1,37,38,39,-1,40,41,42,-1,40,42,43,-1,43,42,44,-1,43,44,45,-1,45,44,46,-1,45,46,47,-1,47,46,48,-1,47,48,49,-1,49,48,50,-1,49,50,51,-1,51,50,52,-1,51,52,53,-1,53,52,54,-1,53,54,55,-1,55,54,39,-1,55,39,38,-1,32,34,56,-1,32,56,57,-1,57,56,58,-1,57,58,59,-1,59,58,60,-1,59,60,61,-1,61,60,62,-1,61,62,63,-1,63,62,64,-1,63,64,65,-1,65,64,66,-1,65,66,67,-1,67,66,41,-1,67,41,40,-1,45,47,68,-1,68,47,49,-1,68,49,69,-1,69,49,51,-1,69,51,70,-1,70,51,53,-1,70,53,71,-1,71,53,55,-1,71,55,72,-1,72,55,38,-1,72,38,73,-1,73,38,36,-1,73,36,74,-1,74,36,33,-1,74,33,75,-1,75,33,32,-1,75,32,76,-1,76,32,57,-1,76,57,77,-1,77,57,59,-1,77,59,78,-1,78,59,61,-1,78,61,79,-1,79,61,63,-1,79,63,80,-1,80,63,65,-1,80,65,81,-1,81,65,67,-1,81,67,82,-1,82,67,40,-1,82,40,83,-1,83,40,43,-1,83,43,84,-1,84,43,45,-1,84,45,68,-1,72,73,85,-1,85,73,86,-1,72,85,87,-1,72,87,71,-1,71,87,88,-1,71,88,70,-1,70,88,89,-1,70,89,69,-1,69,89,90,-1,69,90,68,-1,68,90,91,-1,68,91,84,-1,84,91,92,-1,84,92,83,-1,83,92,93,-1,83,93,82,-1,82,93,94,-1,82,94,81,-1,81,94,95,-1,81,95,80,-1,80,95,96,-1,80,96,79,-1,79,96,97,-1,79,97,78,-1,78,97,98,-1,78,98,77,-1,77,98,99,-1,77,99,76,-1,76,99,100,-1,76,100,75,-1,74,75,101,-1,101,75,100,-1,73,74,86,-1,86,74,101,-1,102,103,104,-1,104,103,105,-1,103,106,105,-1,105,106,107,-1,106,108,107,-1,107,108,109,-1,108,110,109,-1,109,110,111,-1,110,112,111,-1,111,112,113,-1,112,114,113,-1,113,114,115,-1,114,116,115,-1,115,116,117,-1,116,118,117,-1,117,118,119,-1,118,120,119,-1,119,120,121,-1,120,122,121,-1,121,122,123,-1,122,124,123,-1,123,124,125,-1,124,102,125,-1,125,102,104,-1,106,103,102,-1,102,124,106,-1,106,124,122,-1,106,122,108,-1,112,110,114,-1,114,110,108,-1,114,108,116,-1,116,108,122,-1,116,122,118,-1,118,122,120,-1,126,127,128,-1,128,127,129,-1,129,127,130,-1,131,132,133,-1,131,133,134,-1,134,133,135,-1,134,135,130,-1,130,135,136,-1,130,136,129,-1,132,131,137,-1,137,131,138,-1,137,138,139,-1,139,138,140,-1,139,140,141,-1,141,140,142,-1,141,142,143,-1,143,142,144,-1,143,144,145,-1,145,144,146,-1,145,146,147,-1,147,146,148,-1,147,148,149,-1,149,148,150,-1,149,150,151,-1,152,153,154,-1,152,154,155,-1,155,154,156,-1,155,156,157,-1,157,156,158,-1,157,158,159,-1,159,158,160,-1,159,160,161,-1,161,160,162,-1,161,162,163,-1,163,162,164,-1,163,164,165,-1,165,164,151,-1,165,151,150,-1,166,167,168,-1,166,168,169,-1,169,168,153,-1,169,153,152,-1,166,170,167,-1,167,170,171,-1,172,173,174,-1,172,174,175,-1,175,174,171,-1,175,171,170,-1,176,177,178,-1,176,178,179,-1,179,178,180,-1,179,180,181,-1,181,180,182,-1,181,182,183,-1,183,182,184,-1,183,184,185,-1,185,184,186,-1,185,186,187,-1,187,186,188,-1,187,188,189,-1,189,188,173,-1,189,173,172,-1,190,191,192,-1,190,192,193,-1,193,192,194,-1,193,194,195,-1,195,194,196,-1,195,196,197,-1,197,196,198,-1,197,198,199,-1,199,198,200,-1,199,200,201,-1,201,200,202,-1,201,202,203,-1,203,202,177,-1,203,177,176,-1,126,128,204,-1,126,204,205,-1,205,204,206,-1,205,206,207,-1,207,206,191,-1,207,191,190,-1,193,131,190,-1,190,131,134,-1,190,134,207,-1,207,134,130,-1,207,130,205,-1,205,130,127,-1,205,127,126,-1,170,166,175,-1,175,166,169,-1,175,169,172,-1,172,169,152,-1,172,152,189,-1,189,152,155,-1,189,155,187,-1,187,155,157,-1,187,157,185,-1,185,157,159,-1,185,159,183,-1,183,159,161,-1,183,161,181,-1,181,161,163,-1,181,163,179,-1,179,163,165,-1,179,165,176,-1,176,165,150,-1,176,150,203,-1,203,150,148,-1,203,148,201,-1,201,148,146,-1,201,146,199,-1,199,146,144,-1,199,144,197,-1,197,144,142,-1,197,142,195,-1,195,142,140,-1,195,140,193,-1,193,140,138,-1,193,138,131,-1,208,209,210,-1,210,209,211,-1,209,212,211,-1,211,212,213,-1,212,214,213,-1,213,214,215,-1,214,216,215,-1,215,216,217,-1,216,218,217,-1,217,218,219,-1,218,208,219,-1,219,208,210,-1,216,214,218,-1,218,214,212,-1,218,212,208,-1,208,212,209,-1,
        ]
    }
}
Shape{
    appearance Appearance {
        material  Material 	{
            diffuseColor 0.20784313725490197 0.20784313725490197 0.20784313725490197
            specularColor 0.01568627450980392 0.01568627450980392 0.01568627450980392
            ambientIntensity 0.298
            transparency 0.0
            shininess 0.5
        }
    }
    geometry IndexedFaceSet {
        ccw TRUE
        solid FALSE
        coord DEF co Coordinate {
            point [
                -1.1484 -2.1241 0.0197, -1.4117 -2.1241 0.0197, -1.2659 -1.7952 0.0197, -1.2932 -1.7952 0.0197, -1.2735 -1.7679 0.0197, -1.2862 -1.7678 0.0197, -1.2785 -1.74 0.0197, -1.281 -1.74 0.0197, -0.3457 -1.7304 0.0197, -0.3457 -2.3449 0.0197, -0.4618 -1.7304 0.0197, -0.4575 -2.3449 0.0197, -0.5405 -2.3372 0.0197, -0.7682 -2.03 0.0197, -0.7615 -1.9516 0.0197, -0.7431 -1.8893 0.0197, -0.555 -1.7403 0.0197, -0.6068 -2.3165 0.0197, -0.6605 -2.2846 0.0197, -0.7047 -2.241 0.0197, -0.7379 -2.1867 0.0197, -0.761 -2.1127 0.0197, -0.7158 -1.8408 0.0197, -0.6775 -1.8002 0.0197, -0.62 -1.763 0.0197, -3.4055 2.6193 0.4528, -3.4055 2.6193 0.8071, -3.4055 -5.8453 0.4528, -3.4055 -5.9634 0.8071, -3.4055 -5.9634 0.3346, 2.5591 2.6193 0.8071, 2.5591 2.6193 0.4528, 2.5591 -5.9634 0.8071, 2.5591 -5.8453 0.4528, 2.5591 -5.9634 0.3346, 2.6378 -6.0421 0.2559, -3.4843 -6.0421 0.2559, 2.6378 -6.0421 0.8071, -3.4843 -6.0421 0.8071
            ]
        }
        coordIndex [
            0,1,2,-1,2,1,3,-1,2,3,4,-1,4,3,5,-1,4,5,6,-1,6,5,7,-1,8,9,10,-1,10,9,11,-1,10,11,12,-1,13,14,10,-1,10,14,15,-1,10,15,16,-1,12,17,10,-1,10,17,18,-1,10,18,19,-1,19,20,10,-1,10,20,21,-1,10,21,13,-1,22,23,15,-1,15,23,24,-1,15,24,16,-1,25,26,27,-1,27,26,28,-1,27,28,29,-1,30,31,32,-1,32,31,33,-1,32,33,34,-1,31,30,25,-1,25,30,26,-1,33,27,34,-1,34,27,29,-1,34,29,35,-1,35,29,36,-1,37,32,35,-1,35,32,34,-1,36,29,38,-1,38,29,28,-1,
        ]
    }
}
Shape{
    appearance Appearance {
        material  Material 	{
            diffuseColor 0.8274509803921568 0.6666666666666666 0.12941176470588237
            specularColor 0.8274509803921568 0.6666666666666666 0.12941176470588237
            ambientIntensity 0.6535
            transparency 0.0
            shininess 0.5
        }
    }
    geometry IndexedFaceSet {
        ccw TRUE
        solid FALSE
        coord DEF co Coordinate {
            point [
                1.3425 -4.4008 0.4528, 1.3425 -4.8637 0.6878, 1.1457 -4.4008 0.4528, 1.1457 -4.8637 0.6878, 1.1457 -5.3012 0.6468, 1.1457 -5.3102 0.7052, 1.1457 -4.9469 0.7011, 1.1457 -4.9559 0.7595, 1.1457 -4.9185 0.7025, 1.1457 -4.9152 0.7615, 1.1457 -4.8903 0.698, 1.1457 -4.875 0.755, 1.1457 -4.8369 0.7405, 1.1457 -4.2704 0.4528, 1.3425 -4.2704 0.4528, 1.3425 -4.8369 0.7405, 1.3425 -4.8903 0.698, 1.3425 -4.875 0.755, 1.3425 -4.9185 0.7025, 1.3425 -4.9152 0.7615, 1.3425 -4.9469 0.7011, 1.3425 -4.9559 0.7595, 1.3425 -5.3012 0.6468, 1.3425 -5.3102 0.7052, 1.2842 -5.3764 0.6353, 1.2638 -5.3791 0.6349, 1.3398 -5.3214 0.6437, 1.332 -5.3402 0.6409, 1.3195 -5.3563 0.6384, 1.1484 -5.3214 0.6437, 1.2244 -5.3791 0.6349, 1.204 -5.3764 0.6353, 1.185 -5.3687 0.6365, 1.1687 -5.3563 0.6384, 1.3031 -5.3687 0.6365, 1.1562 -5.3402 0.6409, 1.2638 -5.388 0.6933, 1.2244 -5.388 0.6933, 1.1484 -5.3303 0.7021, 1.1562 -5.3491 0.6992, 1.1687 -5.3652 0.6968, 1.204 -5.3854 0.6937, 1.185 -5.3776 0.6949, 1.332 -5.3491 0.6992, 1.3398 -5.3303 0.7021, 1.3195 -5.3652 0.6968, 1.3031 -5.3776 0.6949, 1.2842 -5.3854 0.6937, 0.3425 -4.4008 0.4528, 0.3425 -4.8637 0.6878, 0.1457 -4.4008 0.4528, 0.1457 -4.8637 0.6878, 0.1457 -5.3012 0.6468, 0.1457 -5.3102 0.7052, 0.1457 -4.9469 0.7011, 0.1457 -4.9559 0.7595, 0.1457 -4.9185 0.7025, 0.1457 -4.9152 0.7615, 0.1457 -4.8903 0.698, 0.1457 -4.875 0.755, 0.1457 -4.8369 0.7405, 0.1457 -4.2704 0.4528, 0.3425 -4.9559 0.7595, 0.3425 -4.9152 0.7615, 0.3425 -4.875 0.755, 0.3425 -4.8369 0.7405, 0.3425 -4.2704 0.4528, 0.3425 -4.8903 0.698, 0.3425 -4.9185 0.7025, 0.3425 -4.9469 0.7011, 0.3425 -5.3012 0.6468, 0.3425 -5.3102 0.7052, 0.1484 -5.3214 0.6437, 0.2244 -5.3791 0.6349, 0.2638 -5.3791 0.6349, 0.3398 -5.3214 0.6437, 0.204 -5.3764 0.6353, 0.185 -5.3687 0.6365, 0.1687 -5.3563 0.6384, 0.3031 -5.3687 0.6365, 0.2842 -5.3764 0.6353, 0.3195 -5.3563 0.6384, 0.332 -5.3402 0.6409, 0.1562 -5.3402 0.6409, 0.2638 -5.388 0.6933, 0.2244 -5.388 0.6933, 0.2842 -5.3854 0.6937, 0.3031 -5.3776 0.6949, 0.3195 -5.3652 0.6968, 0.332 -5.3491 0.6992, 0.3398 -5.3303 0.7021, 0.1484 -5.3303 0.7021, 0.185 -5.3776 0.6949, 0.204 -5.3854 0.6937, 0.1687 -5.3652 0.6968, 0.1562 -5.3491 0.6992, -0.6575 -4.4008 0.4528, -0.6575 -4.8637 0.6878, -0.8543 -4.4008 0.4528, -0.8543 -4.8637 0.6878, -0.8543 -5.3012 0.6468, -0.8543 -5.3102 0.7052, -0.8543 -4.9469 0.7011, -0.8543 -4.9559 0.7595, -0.8543 -4.9185 0.7025, -0.8543 -4.9152 0.7615, -0.8543 -4.8903 0.698, -0.8543 -4.875 0.755, -0.8543 -4.8369 0.7405, -0.8543 -4.2704 0.4528, -0.6575 -4.9559 0.7595, -0.6575 -4.9152 0.7615, -0.6575 -4.875 0.755, -0.6575 -4.8369 0.7405, -0.6575 -4.2704 0.4528, -0.6575 -4.8903 0.698, -0.6575 -4.9185 0.7025, -0.6575 -4.9469 0.7011, -0.6575 -5.3012 0.6468, -0.6575 -5.3102 0.7052, -0.8516 -5.3214 0.6437, -0.7756 -5.3791 0.6349, -0.7362 -5.3791 0.6349, -0.6602 -5.3214 0.6437, -0.796 -5.3764 0.6353, -0.815 -5.3687 0.6365, -0.8313 -5.3563 0.6384, -0.6969 -5.3687 0.6365, -0.7158 -5.3764 0.6353, -0.6805 -5.3563 0.6384, -0.668 -5.3402 0.6409, -0.8438 -5.3402 0.6409, -0.7362 -5.388 0.6933, -0.7756 -5.388 0.6933, -0.7158 -5.3854 0.6937, -0.6969 -5.3776 0.6949, -0.6805 -5.3652 0.6968, -0.668 -5.3491 0.6992, -0.6602 -5.3303 0.7021, -0.8516 -5.3303 0.7021, -0.8438 -5.3491 0.6992, -0.8313 -5.3652 0.6968, -0.796 -5.3854 0.6937, -0.815 -5.3776 0.6949, 0.8425 -1.2512 0.4528, 0.8425 -1.7141 0.6878, 0.6457 -1.2512 0.4528, 0.6457 -1.7141 0.6878, 0.6457 -1.186 0.4528, 0.6457 -1.1208 0.4528, 0.6457 -1.6873 0.7405, 0.6457 -1.7254 0.755, 0.6457 -1.7407 0.698, 0.6457 -1.7656 0.7615, 0.6457 -1.7689 0.7025, 0.6457 -1.8063 0.7595, 0.6457 -1.7973 0.7011, 0.6457 -2.1606 0.7052, 0.6457 -2.1516 0.6468, 0.8425 -1.8063 0.7595, 0.8425 -1.7656 0.7615, 0.8425 -1.7254 0.755, 0.8425 -1.6873 0.7405, 0.8425 -1.1208 0.4528, 0.8425 -2.1606 0.7052, 0.8425 -2.1516 0.6468, 0.8425 -1.7973 0.7011, 0.8425 -1.7689 0.7025, 0.8425 -1.7407 0.698, 0.8425 -1.186 0.4528, 0.7244 -2.2295 0.6349, 0.7638 -2.2295 0.6349, 0.7842 -2.2268 0.6353, 0.832 -2.1906 0.6409, 0.8195 -2.2067 0.6384, 0.8031 -2.219 0.6365, 0.7069 -2.2275 0.6352, 0.6902 -2.2218 0.6361, 0.6753 -2.2125 0.6375, 0.6476 -2.169 0.6442, 0.6535 -2.1854 0.6417, 0.6628 -2.2002 0.6394, 0.8398 -2.1718 0.6437, 0.7638 -2.2384 0.6933, 0.7244 -2.2384 0.6933, 0.7842 -2.2358 0.6937, 0.8031 -2.228 0.6949, 0.8195 -2.2156 0.6968, 0.832 -2.1995 0.6992, 0.8398 -2.1807 0.7021, 0.6476 -2.1779 0.7026, 0.6535 -2.1944 0.7, 0.6628 -2.2091 0.6978, 0.6753 -2.2214 0.6959, 0.7069 -2.2365 0.6936, 0.6902 -2.2307 0.6945, -0.1575 -1.2512 0.4528, -0.1575 -1.7141 0.6878, -0.3543 -1.2512 0.4528, -0.3543 -1.7141 0.6878, -0.3543 -1.186 0.4528, -0.3543 -1.1208 0.4528, -0.3543 -1.6873 0.7405, -0.3543 -1.7254 0.755, -0.3543 -1.7407 0.698, -0.3543 -1.7656 0.7615, -0.3543 -1.7689 0.7025, -0.3543 -1.8063 0.7595, -0.3543 -1.7973 0.7011, -0.3543 -2.1606 0.7052, -0.3543 -2.1516 0.6468, -0.1575 -1.8063 0.7595, -0.1575 -1.7656 0.7615, -0.1575 -1.7254 0.755, -0.1575 -1.6873 0.7405, -0.1575 -1.1208 0.4528, -0.1575 -2.1606 0.7052, -0.1575 -2.1516 0.6468, -0.1575 -1.7973 0.7011, -0.1575 -1.7689 0.7025, -0.1575 -1.7407 0.698, -0.1575 -1.186 0.4528, -0.2756 -2.2295 0.6349, -0.2362 -2.2295 0.6349, -0.2158 -2.2268 0.6353, -0.168 -2.1906 0.6409, -0.1805 -2.2067 0.6384, -0.1969 -2.219 0.6365, -0.2931 -2.2275 0.6352, -0.3098 -2.2218 0.6361, -0.3247 -2.2125 0.6375, -0.3524 -2.169 0.6442, -0.3465 -2.1854 0.6417, -0.3372 -2.2002 0.6394, -0.1602 -2.1718 0.6437, -0.2362 -2.2384 0.6933, -0.2756 -2.2384 0.6933, -0.2158 -2.2358 0.6937, -0.1969 -2.228 0.6949, -0.1805 -2.2156 0.6968, -0.168 -2.1995 0.6992, -0.1602 -2.1807 0.7021, -0.3524 -2.1779 0.7026, -0.3465 -2.1944 0.7, -0.3372 -2.2091 0.6978, -0.3247 -2.2214 0.6959, -0.2931 -2.2365 0.6936, -0.3098 -2.2307 0.6945, -1.1575 -1.2512 0.4528, -1.1575 -1.7141 0.6878, -1.3543 -1.2512 0.4528, -1.3543 -1.7141 0.6878, -1.3543 -1.186 0.4528, -1.3543 -1.1208 0.4528, -1.3543 -1.6873 0.7405, -1.3543 -1.7254 0.755, -1.3543 -1.7407 0.698, -1.3543 -1.7656 0.7615, -1.3543 -1.7689 0.7025, -1.3543 -1.8063 0.7595, -1.3543 -1.7973 0.7011, -1.3543 -2.1606 0.7052, -1.3543 -2.1516 0.6468, -1.1575 -1.8063 0.7595, -1.1575 -1.7656 0.7615, -1.1575 -1.7254 0.755, -1.1575 -1.6873 0.7405, -1.1575 -1.1208 0.4528, -1.1575 -2.1606 0.7052, -1.1575 -2.1516 0.6468, -1.1575 -1.7973 0.7011, -1.1575 -1.7689 0.7025, -1.1575 -1.7407 0.698, -1.1575 -1.186 0.4528, -1.3465 -2.1854 0.6417, -1.3524 -2.169 0.6442, -1.2756 -2.2295 0.6349, -1.2362 -2.2295 0.6349, -1.2158 -2.2268 0.6353, -1.168 -2.1906 0.6409, -1.1805 -2.2067 0.6384, -1.1969 -2.219 0.6365, -1.2931 -2.2275 0.6352, -1.3098 -2.2218 0.6361, -1.3247 -2.2125 0.6375, -1.1602 -2.1718 0.6437, -1.3372 -2.2002 0.6394, -1.2362 -2.2384 0.6933, -1.2756 -2.2384 0.6933, -1.2158 -2.2358 0.6937, -1.1969 -2.228 0.6949, -1.1805 -2.2156 0.6968, -1.168 -2.1995 0.6992, -1.1602 -2.1807 0.7021, -1.3524 -2.1779 0.7026, -1.3465 -2.1944 0.7, -1.3098 -2.2307 0.6945, -1.2931 -2.2365 0.6936, -1.3247 -2.2214 0.6959, -1.3372 -2.2091 0.6978
            ]
        }
        coordIndex [
            0,1,2,-1,2,1,3,-1,4,5,6,-1,6,5,7,-1,6,7,8,-1,8,7,9,-1,8,9,10,-1,10,9,11,-1,10,11,3,-1,3,11,12,-1,3,12,2,-1,2,12,13,-1,0,14,1,-1,1,14,15,-1,1,15,16,-1,16,15,17,-1,16,17,18,-1,18,17,19,-1,18,19,20,-1,20,19,21,-1,20,21,22,-1,22,21,23,-1,24,25,22,-1,26,27,28,-1,29,4,30,-1,30,4,6,-1,30,6,25,-1,25,6,20,-1,25,20,22,-1,31,32,33,-1,26,28,22,-1,22,28,34,-1,22,34,24,-1,31,33,30,-1,30,33,35,-1,30,35,29,-1,36,37,25,-1,25,37,30,-1,23,21,7,-1,38,39,37,-1,37,39,40,-1,37,40,41,-1,41,40,42,-1,43,44,45,-1,45,44,23,-1,45,23,46,-1,46,23,47,-1,47,23,36,-1,36,23,7,-1,36,7,37,-1,37,7,5,-1,37,5,38,-1,7,21,19,-1,7,19,9,-1,9,19,17,-1,9,17,11,-1,11,17,15,-1,11,15,12,-1,13,12,14,-1,14,12,15,-1,3,1,10,-1,10,1,16,-1,10,16,8,-1,8,16,18,-1,8,18,6,-1,6,18,20,-1,36,25,24,-1,36,24,47,-1,47,24,34,-1,47,34,46,-1,46,34,28,-1,46,28,45,-1,45,28,27,-1,45,27,43,-1,43,27,26,-1,43,26,44,-1,44,26,22,-1,44,22,23,-1,30,37,41,-1,30,41,31,-1,31,41,42,-1,31,42,32,-1,32,42,40,-1,32,40,33,-1,33,40,39,-1,33,39,35,-1,35,39,38,-1,35,38,29,-1,29,38,5,-1,29,5,4,-1,48,49,50,-1,50,49,51,-1,52,53,54,-1,54,53,55,-1,54,55,56,-1,56,55,57,-1,56,57,58,-1,58,57,59,-1,58,59,51,-1,51,59,60,-1,51,60,50,-1,50,60,61,-1,55,62,63,-1,55,63,57,-1,57,63,64,-1,57,64,59,-1,59,64,65,-1,59,65,60,-1,61,60,66,-1,66,60,65,-1,48,66,49,-1,49,66,65,-1,49,65,67,-1,67,65,64,-1,67,64,68,-1,68,64,63,-1,68,63,69,-1,69,63,62,-1,69,62,70,-1,70,62,71,-1,51,49,58,-1,58,49,67,-1,58,67,56,-1,56,67,68,-1,56,68,54,-1,54,68,69,-1,72,52,73,-1,73,52,54,-1,73,54,74,-1,54,69,74,-1,74,69,70,-1,74,70,75,-1,76,77,78,-1,79,80,81,-1,81,80,74,-1,81,74,82,-1,82,74,75,-1,76,78,73,-1,73,78,83,-1,73,83,72,-1,84,85,74,-1,74,85,73,-1,84,74,80,-1,84,80,86,-1,86,80,79,-1,86,79,87,-1,87,79,81,-1,87,81,88,-1,88,81,82,-1,88,82,89,-1,89,82,75,-1,89,75,90,-1,90,75,70,-1,90,70,71,-1,71,62,55,-1,86,87,88,-1,90,71,84,-1,84,71,55,-1,84,55,85,-1,85,55,53,-1,85,53,91,-1,86,88,84,-1,84,88,89,-1,84,89,90,-1,92,93,94,-1,94,93,85,-1,94,85,95,-1,95,85,91,-1,73,85,93,-1,73,93,76,-1,76,93,92,-1,76,92,77,-1,77,92,94,-1,77,94,78,-1,78,94,95,-1,78,95,83,-1,83,95,91,-1,83,91,72,-1,72,91,53,-1,72,53,52,-1,96,97,98,-1,98,97,99,-1,100,101,102,-1,102,101,103,-1,102,103,104,-1,104,103,105,-1,104,105,106,-1,106,105,107,-1,106,107,99,-1,99,107,108,-1,99,108,98,-1,98,108,109,-1,103,110,111,-1,103,111,105,-1,105,111,112,-1,105,112,107,-1,107,112,113,-1,107,113,108,-1,109,108,114,-1,114,108,113,-1,96,114,97,-1,97,114,113,-1,97,113,115,-1,115,113,112,-1,115,112,116,-1,116,112,111,-1,116,111,117,-1,117,111,110,-1,117,110,118,-1,118,110,119,-1,99,97,106,-1,106,97,115,-1,106,115,104,-1,104,115,116,-1,104,116,102,-1,102,116,117,-1,120,100,121,-1,121,100,102,-1,121,102,122,-1,102,117,122,-1,122,117,118,-1,122,118,123,-1,124,125,126,-1,127,128,129,-1,129,128,122,-1,129,122,130,-1,130,122,123,-1,124,126,121,-1,121,126,131,-1,121,131,120,-1,132,133,122,-1,122,133,121,-1,132,122,128,-1,132,128,134,-1,134,128,127,-1,134,127,135,-1,135,127,129,-1,135,129,136,-1,136,129,130,-1,136,130,137,-1,137,130,123,-1,137,123,138,-1,138,123,118,-1,138,118,119,-1,119,110,103,-1,134,135,136,-1,139,140,133,-1,133,140,141,-1,133,141,142,-1,142,141,143,-1,134,136,132,-1,132,136,137,-1,132,137,138,-1,138,119,132,-1,132,119,103,-1,132,103,133,-1,133,103,101,-1,133,101,139,-1,121,133,142,-1,121,142,124,-1,124,142,143,-1,124,143,125,-1,125,143,141,-1,125,141,126,-1,126,141,140,-1,126,140,131,-1,131,140,139,-1,131,139,120,-1,120,139,101,-1,120,101,100,-1,144,145,146,-1,146,145,147,-1,148,146,147,-1,149,148,150,-1,150,148,147,-1,150,147,151,-1,151,147,152,-1,151,152,153,-1,153,152,154,-1,153,154,155,-1,155,154,156,-1,155,156,157,-1,157,156,158,-1,155,159,160,-1,155,160,153,-1,153,160,161,-1,153,161,151,-1,151,161,162,-1,151,162,150,-1,149,150,163,-1,163,150,162,-1,164,165,159,-1,159,165,166,-1,159,166,160,-1,160,166,167,-1,160,167,161,-1,161,167,168,-1,161,168,162,-1,162,168,145,-1,145,144,162,-1,162,144,169,-1,162,169,163,-1,147,145,152,-1,152,145,168,-1,152,168,154,-1,154,168,167,-1,154,167,156,-1,156,167,166,-1,170,166,171,-1,171,166,165,-1,171,165,172,-1,173,174,175,-1,176,177,178,-1,156,166,158,-1,158,166,170,-1,158,170,179,-1,179,170,180,-1,176,178,170,-1,170,178,181,-1,170,181,180,-1,172,165,175,-1,175,165,182,-1,175,182,173,-1,183,184,171,-1,171,184,170,-1,183,171,172,-1,183,172,185,-1,185,172,175,-1,185,175,186,-1,186,175,174,-1,186,174,187,-1,187,174,173,-1,187,173,188,-1,188,173,182,-1,188,182,189,-1,189,182,165,-1,189,165,164,-1,155,184,159,-1,159,184,183,-1,159,183,164,-1,155,157,184,-1,184,157,190,-1,184,190,191,-1,191,192,184,-1,184,192,193,-1,184,193,194,-1,194,193,195,-1,186,187,188,-1,183,185,164,-1,164,185,186,-1,164,186,189,-1,189,186,188,-1,170,184,194,-1,170,194,176,-1,176,194,195,-1,176,195,177,-1,177,195,193,-1,177,193,178,-1,178,193,192,-1,178,192,181,-1,181,192,191,-1,181,191,180,-1,180,191,190,-1,180,190,179,-1,179,190,157,-1,179,157,158,-1,196,197,198,-1,198,197,199,-1,200,198,199,-1,201,200,202,-1,202,200,199,-1,202,199,203,-1,203,199,204,-1,203,204,205,-1,205,204,206,-1,205,206,207,-1,207,206,208,-1,207,208,209,-1,209,208,210,-1,207,211,212,-1,207,212,205,-1,205,212,213,-1,205,213,203,-1,203,213,214,-1,203,214,202,-1,201,202,215,-1,215,202,214,-1,216,217,211,-1,211,217,218,-1,211,218,212,-1,212,218,219,-1,212,219,213,-1,213,219,220,-1,213,220,214,-1,214,220,197,-1,197,196,214,-1,214,196,221,-1,214,221,215,-1,199,197,204,-1,204,197,220,-1,204,220,206,-1,206,220,219,-1,206,219,208,-1,208,219,218,-1,222,218,223,-1,223,218,217,-1,223,217,224,-1,225,226,227,-1,228,229,230,-1,208,218,210,-1,210,218,222,-1,210,222,231,-1,231,222,232,-1,228,230,222,-1,222,230,233,-1,222,233,232,-1,224,217,227,-1,227,217,234,-1,227,234,225,-1,235,236,223,-1,223,236,222,-1,235,223,224,-1,235,224,237,-1,237,224,227,-1,237,227,238,-1,238,227,226,-1,238,226,239,-1,239,226,225,-1,239,225,240,-1,240,225,234,-1,240,234,241,-1,241,234,217,-1,241,217,216,-1,211,207,216,-1,216,207,209,-1,242,243,236,-1,235,216,236,-1,236,216,209,-1,236,209,242,-1,243,244,236,-1,236,244,245,-1,236,245,246,-1,246,245,247,-1,238,239,240,-1,235,237,216,-1,216,237,238,-1,216,238,241,-1,241,238,240,-1,222,236,246,-1,222,246,228,-1,228,246,247,-1,228,247,229,-1,229,247,245,-1,229,245,230,-1,230,245,244,-1,230,244,233,-1,233,244,243,-1,233,243,232,-1,232,243,242,-1,232,242,231,-1,231,242,209,-1,231,209,210,-1,248,249,250,-1,250,249,251,-1,252,250,251,-1,253,252,254,-1,254,252,251,-1,254,251,255,-1,255,251,256,-1,255,256,257,-1,257,256,258,-1,257,258,259,-1,259,258,260,-1,259,260,261,-1,261,260,262,-1,259,263,264,-1,259,264,257,-1,257,264,265,-1,257,265,255,-1,255,265,266,-1,255,266,254,-1,253,254,267,-1,267,254,266,-1,268,269,263,-1,263,269,270,-1,263,270,264,-1,264,270,271,-1,264,271,265,-1,265,271,272,-1,265,272,266,-1,266,272,249,-1,249,248,266,-1,266,248,273,-1,266,273,267,-1,251,249,256,-1,256,249,272,-1,256,272,258,-1,258,272,271,-1,258,271,260,-1,260,271,270,-1,262,260,270,-1,274,275,276,-1,275,262,276,-1,276,262,270,-1,276,270,277,-1,277,270,269,-1,277,269,278,-1,279,280,281,-1,282,283,284,-1,278,269,281,-1,281,269,285,-1,281,285,279,-1,282,284,276,-1,276,284,286,-1,276,286,274,-1,287,288,277,-1,277,288,276,-1,287,277,278,-1,287,278,289,-1,289,278,281,-1,289,281,290,-1,290,281,280,-1,290,280,291,-1,291,280,279,-1,291,279,292,-1,292,279,285,-1,292,285,293,-1,293,285,269,-1,293,269,268,-1,259,288,263,-1,263,288,287,-1,263,287,268,-1,259,261,288,-1,288,261,294,-1,288,294,295,-1,290,291,292,-1,296,297,298,-1,298,297,288,-1,298,288,299,-1,299,288,295,-1,287,289,268,-1,268,289,290,-1,268,290,293,-1,293,290,292,-1,276,288,297,-1,276,297,282,-1,282,297,296,-1,282,296,283,-1,283,296,298,-1,283,298,284,-1,284,298,299,-1,284,299,286,-1,286,299,295,-1,286,295,274,-1,274,295,294,-1,274,294,275,-1,275,294,261,-1,275,261,262,-1,
        ]
    }
}
Shape{
    appearance Appearance {
        material  Material 	{
            diffuseColor 0.6666666666666666 0.6666666666666666 0.6666666666666666
            specularColor 0.4666666666666667 0.4666666666666667 0.4666666666666667
            ambientIntensity 0.6667
            transparency 0.0
            shininess 0.5
        }
    }
    geometry IndexedFaceSet {
        ccw TRUE
        solid FALSE
        coord DEF co Coordinate {
            point [
                -0.5984 -5.2941 0.8858, -0.5984 -4.8216 0.8858, -0.5984 -5.2941 0.8071, -0.5984 -4.8216 0.8071, -0.6038 -4.7809 0.8071, -0.6038 -4.7809 0.8858, -0.6195 -4.7429 0.8071, -0.6195 -4.7429 0.8858, -0.6445 -4.7103 0.8071, -0.6445 -4.7103 0.8858, -0.6772 -4.6852 0.8071, -0.6772 -4.6852 0.8858, -0.7151 -4.6695 0.8071, -0.7151 -4.6695 0.8858, -0.7559 -4.6642 0.8071, -0.7559 -4.6642 0.8858, -0.7967 -4.6695 0.8071, -0.7967 -4.6695 0.8858, -0.8346 -4.6852 0.8071, -0.8346 -4.6852 0.8858, -0.8673 -4.7103 0.8071, -0.8673 -4.7103 0.8858, -0.8923 -4.7429 0.8071, -0.8923 -4.7429 0.8858, -0.908 -4.7809 0.8071, -0.908 -4.7809 0.8858, -0.9134 -4.8216 0.8071, -0.9134 -4.8216 0.8858, -0.9134 -5.2941 0.8858, -0.9134 -5.2941 0.8071, -0.908 -5.3348 0.8071, -0.908 -5.3348 0.8858, -0.8923 -5.3728 0.8071, -0.8923 -5.3728 0.8858, -0.8673 -5.4054 0.8071, -0.8673 -5.4054 0.8858, -0.8346 -5.4305 0.8071, -0.8346 -5.4305 0.8858, -0.7967 -5.4462 0.8071, -0.7967 -5.4462 0.8858, -0.7559 -5.4516 0.8071, -0.7559 -5.4516 0.8858, -0.7151 -5.4462 0.8071, -0.7151 -5.4462 0.8858, -0.6772 -5.4305 0.8071, -0.6772 -5.4305 0.8858, -0.6445 -5.4054 0.8071, -0.6445 -5.4054 0.8858, -0.6195 -5.3728 0.8071, -0.6195 -5.3728 0.8858, -0.6038 -5.3348 0.8071, -0.6038 -5.3348 0.8858, -2.6969 4.9225 0.8071, -3.5039 4.9225 0.8071, -2.6969 4.9225 0.0591, -3.5039 4.9225 0.0591, -3.5039 5.0012 0.0591, -2.6969 5.0012 0.0591, -3.5039 5.0012 0.8071, -2.6969 5.0012 0.8071, -3.5039 4.9992 0.8246, -2.6969 4.9992 0.8246, -3.5039 4.9934 0.8413, -2.6969 4.9934 0.8413, -3.5039 4.984 0.8562, -2.6969 4.984 0.8562, -3.5039 4.9716 0.8686, -2.6969 4.9716 0.8686, -3.5039 4.9566 0.878, -2.6969 4.9566 0.878, -3.5039 4.94 0.8839, -2.6969 4.94 0.8839, -3.5039 4.9225 0.8858, -2.6969 4.9225 0.8858, -3.6417 4.8437 0.0591, -3.7205 4.8437 0.0591, -3.6417 4.8437 0.8071, -3.7205 4.8437 0.8071, -3.7178 4.8437 0.8275, -3.5039 4.8437 0.8858, -3.5039 4.8437 0.8071, -3.6417 4.8437 0.8858, -3.6621 4.8437 0.8831, -3.6811 4.8437 0.8753, -3.7099 4.8437 0.8465, -3.6974 4.8437 0.8628, 3.6417 4.8437 0.0591, 3.7205 4.8437 0.0591, 3.6417 -4.0342 0.0591, 3.7205 -4.0342 0.0591, 3.7205 -4.0342 0.0984, 3.7205 -6.0421 0.0591, 3.7205 -5.2941 0.0591, 3.7205 -6.0421 0.8071, 3.7205 -5.2941 0.0984, 3.7205 -5.2547 0.0984, 3.7205 -4.0736 0.0984, 3.7205 4.8437 0.8071, 3.6417 -6.0421 0.0591, 3.6417 -5.2941 0.0591, 3.6417 4.8437 0.8071, 3.6417 -1.9624 0.8071, 3.6417 -3.483 0.8071, 3.6417 -5.2941 0.0984, 3.6417 -6.0421 0.8071, 3.6417 -5.2547 0.0984, 3.6417 -5.7468 0.8071, 3.6417 -4.0736 0.0984, 3.6417 -4.0342 0.0984, -3.7205 -5.2941 0.0591, -3.7205 -6.0421 0.0591, -3.7205 -5.2941 0.0984, -3.7205 -6.0421 0.8071, -3.7205 -5.2547 0.0984, -3.7205 -4.0342 0.0591, -3.7205 -4.0342 0.0984, -3.7205 -4.0736 0.0984, -3.6417 -4.0342 0.0591, -3.6417 -6.0421 0.0591, -3.6417 -6.0421 0.8071, -3.7178 -6.0421 0.8275, -3.7099 -6.0421 0.8465, 3.7178 -6.0421 0.8275, 3.7099 -6.0421 0.8465, 3.6974 -6.0421 0.8628, 3.6811 -6.0421 0.8753, -3.6621 -6.0421 0.8831, -3.6811 -6.0421 0.8753, -3.6974 -6.0421 0.8628, 3.6621 -6.0421 0.8831, 3.6417 -6.0421 0.8858, 3.3268 -6.0421 0.8071, 3.3268 -6.0421 0.8858, 2.0492 -6.0421 0.8071, 2.0492 -6.0421 0.8858, 0.9941 -6.0421 0.8071, 0.9941 -6.0421 0.8858, 0.4941 -6.0421 0.8071, 0.4941 -6.0421 0.8858, -0.0059 -6.0421 0.8071, -0.0059 -6.0421 0.8858, -0.5059 -6.0421 0.8071, -0.5059 -6.0421 0.8858, -1.0059 -6.0421 0.8071, -1.0059 -6.0421 0.8858, -3.6417 -6.0421 0.8858, 1.3962 -4.7809 0.8858, 1.4016 -4.8216 0.8858, 2.0492 -5.7468 0.8858, -3.6417 -1.9624 0.8858, 3.0108 -1.5922 0.8858, 3.0079 -1.6005 0.8858, 3.3268 -1.9624 0.8858, 3.0032 2.2994 0.8858, 3.0079 2.2919 0.8858, 2.3425 4.0563 0.8858, 3.3268 4.9225 0.8858, 2.3425 4.9225 0.8858, 3.0108 2.2836 0.8858, 3.0118 2.2748 0.8858, 3.0118 -1.5834 0.8858, 2.7117 -1.6142 0.8858, 2.0492 -1.9624 0.8858, 2.7191 -1.6189 0.8858, 2.7275 -1.6218 0.8858, 3.0032 -1.608 0.8858, 2.997 -1.6142 0.8858, 2.9895 -1.6189 0.8858, 2.7054 -1.608 0.8858, 2.7007 -1.6005 0.8858, 2.6978 -1.5922 0.8858, 2.7007 2.2919 0.8858, 2.7054 2.2994 0.8858, 2.0492 4.0563 0.8858, 2.7117 2.3056 0.8858, 2.7191 2.3103 0.8858, 2.7275 2.3132 0.8858, 2.9812 2.3132 0.8858, 2.9895 2.3103 0.8858, 2.997 2.3056 0.8858, 2.9812 -1.6218 0.8858, 2.9724 -1.6228 0.8858, 2.7362 -1.6228 0.8858, 2.7362 2.3142 0.8858, 2.9724 2.3142 0.8858, 2.6969 -1.5834 0.8858, 2.6969 2.2748 0.8858, 2.6978 2.2836 0.8858, 3.5039 4.9225 0.8858, 3.5039 4.8437 0.8858, 3.6417 4.8437 0.8858, 3.6417 -1.9624 0.8858, -2.6969 4.0563 0.8858, -1.3923 -1.5933 0.8858, -1.3673 -1.5607 0.8858, -1.2151 -1.5199 0.8858, -1.1772 -1.5356 0.8858, -1.0059 4.0563 0.8858, -1.1446 -1.5607 0.8858, -1.1195 -1.5933 0.8858, -1.4134 -1.9624 0.8858, -1.4134 -1.672 0.8858, -1.408 -1.6313 0.8858, -1.3346 -1.5356 0.8858, -1.2967 -1.5199 0.8858, -1.2559 -1.5145 0.8858, -1.1038 -1.6313 0.8858, -1.0059 -1.9624 0.8858, -0.5059 4.0563 0.8858, -0.5059 -1.9624 0.8858, -0.408 -1.6313 0.8858, -0.4134 -1.672 0.8858, -0.3923 -1.5933 0.8858, -0.3673 -1.5607 0.8858, -0.3346 -1.5356 0.8858, -0.1772 -1.5356 0.8858, -0.1446 -1.5607 0.8858, -0.0059 4.0563 0.8858, -0.1195 -1.5933 0.8858, -0.2967 -1.5199 0.8858, -0.2559 -1.5145 0.8858, -0.2151 -1.5199 0.8858, 0.592 -1.6313 0.8858, 0.6077 -1.5933 0.8858, 0.4941 4.0563 0.8858, 0.6327 -1.5607 0.8858, 0.6654 -1.5356 0.8858, 0.8228 -1.5356 0.8858, 0.8554 -1.5607 0.8858, 0.9941 4.0563 0.8858, 0.8805 -1.5933 0.8858, -0.1038 -1.6313 0.8858, -0.0059 -1.9624 0.8858, 0.4941 -1.9624 0.8858, 0.5866 -1.672 0.8858, 0.7033 -1.5199 0.8858, 0.7441 -1.5145 0.8858, 0.7849 -1.5199 0.8858, 0.9941 -1.9624 0.8858, 0.8962 -1.6313 0.8858, -0.1038 -2.1852 0.8858, -0.1195 -2.2232 0.8858, -0.0059 -3.483 0.8858, -0.0984 -1.672 0.8858, -0.0984 -1.9624 0.8858, -0.0984 -2.1445 0.8858, -0.3346 -2.2808 0.8858, -0.3673 -2.2558 0.8858, -0.5059 -3.483 0.8858, -0.3923 -2.2232 0.8858, -0.408 -2.1852 0.8858, -0.4134 -2.1445 0.8858, -0.4134 -1.9624 0.8858, -0.1446 -2.2558 0.8858, -0.1772 -2.2808 0.8858, -0.2151 -2.2966 0.8858, -0.2559 -2.3019 0.8858, -0.2967 -2.2966 0.8858, -1.3923 -2.2232 0.8858, -1.408 -2.1852 0.8858, -3.6417 -3.483 0.8858, -1.4134 -2.1445 0.8858, -1.0984 -1.672 0.8858, -1.0984 -1.9624 0.8858, -1.0984 -2.1445 0.8858, -1.1038 -2.1852 0.8858, -1.1195 -2.2232 0.8858, -1.0059 -3.483 0.8858, -1.1446 -2.2558 0.8858, -1.1772 -2.2808 0.8858, -1.2151 -2.2966 0.8858, -1.2559 -2.3019 0.8858, -1.2967 -2.2966 0.8858, -1.3346 -2.2808 0.8858, -1.3673 -2.2558 0.8858, 0.6654 -2.2808 0.8858, 0.6327 -2.2558 0.8858, 0.4941 -3.483 0.8858, 0.6077 -2.2232 0.8858, 0.9016 -1.672 0.8858, 0.9016 -1.9624 0.8858, 0.9016 -2.1445 0.8858, 0.8962 -2.1852 0.8858, 0.8805 -2.2232 0.8858, 0.9941 -3.483 0.8858, 0.8554 -2.2558 0.8858, 0.8228 -2.2808 0.8858, 0.592 -2.1852 0.8858, 0.5866 -2.1445 0.8858, 0.5866 -1.9624 0.8858, 0.7849 -2.2966 0.8858, 0.7441 -2.3019 0.8858, 0.7033 -2.2966 0.8858, -0.5059 -5.7468 0.8858, -1.0059 -5.7468 0.8858, 3.6417 -5.7468 0.8858, 3.3268 -5.7468 0.8858, 0.9941 -5.7468 0.8858, 0.4941 -5.7468 0.8858, -0.0059 -5.7468 0.8858, -3.6417 -5.7468 0.8858, 0.4016 -4.8216 0.8858, 0.4016 -5.2941 0.8858, 0.3962 -5.3348 0.8858, 0.3805 -5.3728 0.8858, 0.3554 -5.4054 0.8858, 0.2849 -4.6695 0.8858, 0.3228 -4.6852 0.8858, 0.2033 -5.4462 0.8858, 0.1654 -5.4305 0.8858, 0.3554 -4.7103 0.8858, 0.3805 -4.7429 0.8858, 0.3962 -4.7809 0.8858, 0.3228 -5.4305 0.8858, 0.2849 -5.4462 0.8858, 0.2441 -5.4516 0.8858, 0.1327 -5.4054 0.8858, 0.1077 -5.3728 0.8858, 0.092 -5.3348 0.8858, 0.2441 -4.6642 0.8858, 0.2033 -4.6695 0.8858, 0.1077 -4.7429 0.8858, 0.1327 -4.7103 0.8858, 0.1654 -4.6852 0.8858, 0.0866 -5.2941 0.8858, 0.0866 -4.8216 0.8858, 0.092 -4.7809 0.8858, 1.3805 -5.3728 0.8858, 1.3554 -5.4054 0.8858, 1.1327 -4.7103 0.8858, 1.1654 -4.6852 0.8858, 1.1327 -5.4054 0.8858, 1.1654 -5.4305 0.8858, 1.2033 -5.4462 0.8858, 1.4016 -5.2941 0.8858, 1.3962 -5.3348 0.8858, 1.2849 -4.6695 0.8858, 2.0492 -3.483 0.8858, 1.2441 -4.6642 0.8858, 1.2033 -4.6695 0.8858, 1.3228 -5.4305 0.8858, 1.2849 -5.4462 0.8858, 1.2441 -5.4516 0.8858, 1.0866 -4.8216 0.8858, 1.092 -4.7809 0.8858, 1.1077 -4.7429 0.8858, 1.3228 -4.6852 0.8858, 1.3554 -4.7103 0.8858, 1.3805 -4.7429 0.8858, 1.1077 -5.3728 0.8858, 1.092 -5.3348 0.8858, 1.0866 -5.2941 0.8858, 3.6417 -3.483 0.8858, 3.3268 -3.483 0.8858, -3.6417 -5.2941 0.0591, -3.6417 -3.483 0.8071, -3.6417 -4.0342 0.0984, -3.6417 -1.9624 0.8071, -3.6417 -5.2941 0.0984, -3.6417 -5.7468 0.8071, -3.6417 -5.2547 0.0984, -3.6417 -4.0736 0.0984, 0.9941 -1.9624 0.8071, 0.9941 4.0563 0.8071, 2.0492 4.0563 0.8071, 3.5039 4.8437 0.8071, 2.7117 2.3056 0.8071, 2.7054 2.2994 0.8071, 2.7007 2.2919 0.8071, 2.6978 2.2836 0.8071, 3.0079 2.2919 0.8071, 2.3425 4.9225 0.8071, 3.3268 4.9225 0.8071, 2.0492 -1.9624 0.8071, 2.7007 -1.6005 0.8071, 2.7054 -1.608 0.8071, 2.7117 -1.6142 0.8071, 2.7191 -1.6189 0.8071, 2.7275 -1.6218 0.8071, 2.9895 -1.6189 0.8071, 2.997 -1.6142 0.8071, 3.3268 -1.9624 0.8071, 2.3425 4.0563 0.8071, 3.0032 2.2994 0.8071, 2.997 2.3056 0.8071, 2.9895 2.3103 0.8071, 2.9812 2.3132 0.8071, 2.9724 2.3142 0.8071, 2.7362 2.3142 0.8071, 2.7275 2.3132 0.8071, 2.7191 2.3103 0.8071, 3.0032 -1.608 0.8071, 3.0079 -1.6005 0.8071, 3.0108 -1.5922 0.8071, 2.6969 2.2748 0.8071, 2.6969 -1.5834 0.8071, 2.6978 -1.5922 0.8071, 3.0118 -1.5834 0.8071, 3.0118 2.2748 0.8071, 3.0108 2.2836 0.8071, 2.7362 -1.6228 0.8071, 2.9724 -1.6228 0.8071, 2.9812 -1.6218 0.8071, 0.6654 -1.5356 0.8071, 0.6327 -1.5607 0.8071, 0.4941 4.0563 0.8071, 0.8805 -1.5933 0.8071, 0.8554 -1.5607 0.8071, 0.8228 -1.5356 0.8071, 0.8962 -1.6313 0.8071, 0.9016 -1.672 0.8071, 0.6077 -1.5933 0.8071, 0.592 -1.6313 0.8071, 0.4941 -1.9624 0.8071, 0.5866 -1.672 0.8071, 0.5866 -1.9624 0.8071, 0.7849 -1.5199 0.8071, 0.7441 -1.5145 0.8071, 0.7033 -1.5199 0.8071, -0.2967 -1.5199 0.8071, -0.3346 -1.5356 0.8071, -0.5059 4.0563 0.8071, -0.3673 -1.5607 0.8071, -0.3923 -1.5933 0.8071, -0.0984 -1.9624 0.8071, -0.0984 -1.672 0.8071, -0.0059 -1.9624 0.8071, -0.1038 -1.6313 0.8071, -0.0059 4.0563 0.8071, -0.1195 -1.5933 0.8071, -0.1446 -1.5607 0.8071, -0.1772 -1.5356 0.8071, -0.2151 -1.5199 0.8071, -0.2559 -1.5145 0.8071, -1.3346 -1.5356 0.8071, -1.3673 -1.5607 0.8071, -2.6969 4.0563 0.8071, -1.0984 -1.672 0.8071, -1.1038 -1.6313 0.8071, -1.0059 -1.9624 0.8071, -1.0059 4.0563 0.8071, -1.1195 -1.5933 0.8071, -1.1446 -1.5607 0.8071, -1.1772 -1.5356 0.8071, -1.3923 -1.5933 0.8071, -1.408 -1.6313 0.8071, -1.4134 -1.672 0.8071, -1.2151 -1.5199 0.8071, -1.2559 -1.5145 0.8071, -1.2967 -1.5199 0.8071, -0.1772 -2.2808 0.8071, -0.1446 -2.2558 0.8071, -0.0059 -3.483 0.8071, -0.408 -1.6313 0.8071, -0.4134 -1.672 0.8071, -0.5059 -1.9624 0.8071, -0.4134 -1.9624 0.8071, -0.4134 -2.1445 0.8071, -0.408 -2.1852 0.8071, -0.3923 -2.2232 0.8071, -0.5059 -3.483 0.8071, -0.3673 -2.2558 0.8071, -0.3346 -2.2808 0.8071, -0.2967 -2.2966 0.8071, -0.2559 -2.3019 0.8071, -0.2151 -2.2966 0.8071, -0.1195 -2.2232 0.8071, -0.1038 -2.1852 0.8071, -0.0984 -2.1445 0.8071, -1.3923 -2.2232 0.8071, -1.3673 -2.2558 0.8071, -1.4134 -1.9624 0.8071, -1.4134 -2.1445 0.8071, -1.408 -2.1852 0.8071, -1.3346 -2.2808 0.8071, -1.2967 -2.2966 0.8071, -1.0059 -3.483 0.8071, -1.2559 -2.3019 0.8071, -1.2151 -2.2966 0.8071, -1.1772 -2.2808 0.8071, -1.1446 -2.2558 0.8071, -1.1195 -2.2232 0.8071, -1.1038 -2.1852 0.8071, -1.0984 -2.1445 0.8071, -1.0984 -1.9624 0.8071, 0.8228 -2.2808 0.8071, 0.8554 -2.2558 0.8071, 0.9941 -3.483 0.8071, 0.8805 -2.2232 0.8071, 0.4941 -3.483 0.8071, 0.6327 -2.2558 0.8071, 0.6654 -2.2808 0.8071, 0.5866 -2.1445 0.8071, 0.592 -2.1852 0.8071, 0.6077 -2.2232 0.8071, 0.8962 -2.1852 0.8071, 0.9016 -2.1445 0.8071, 0.9016 -1.9624 0.8071, 0.7033 -2.2966 0.8071, 0.7441 -2.3019 0.8071, 0.7849 -2.2966 0.8071, -1.0059 -5.7468 0.8071, -0.5059 -5.7468 0.8071, -0.0059 -5.7468 0.8071, 0.0866 -5.2941 0.8071, 0.092 -5.3348 0.8071, 0.1077 -5.3728 0.8071, 0.1327 -5.4054 0.8071, 0.1654 -5.4305 0.8071, 0.3228 -5.4305 0.8071, 0.3554 -5.4054 0.8071, 0.4941 -5.7468 0.8071, 0.3805 -5.3728 0.8071, 0.3962 -4.7809 0.8071, 0.3805 -4.7429 0.8071, 0.2033 -5.4462 0.8071, 0.2441 -5.4516 0.8071, 0.2849 -5.4462 0.8071, 0.4016 -4.8216 0.8071, 0.3554 -4.7103 0.8071, 0.3228 -4.6852 0.8071, 0.2849 -4.6695 0.8071, 0.2441 -4.6642 0.8071, 0.2033 -4.6695 0.8071, 0.1654 -4.6852 0.8071, 0.1327 -4.7103 0.8071, 0.0866 -4.8216 0.8071, 0.1077 -4.7429 0.8071, 0.092 -4.7809 0.8071, 0.3962 -5.3348 0.8071, 0.4016 -5.2941 0.8071, 0.9941 -5.7468 0.8071, 1.0866 -5.2941 0.8071, 1.092 -5.3348 0.8071, 1.1077 -5.3728 0.8071, 1.1327 -5.4054 0.8071, 1.1654 -5.4305 0.8071, 1.2033 -5.4462 0.8071, 1.2441 -5.4516 0.8071, 2.0492 -5.7468 0.8071, 1.2849 -5.4462 0.8071, 1.3228 -5.4305 0.8071, 2.0492 -3.483 0.8071, 1.2849 -4.6695 0.8071, 1.2441 -4.6642 0.8071, 1.3554 -5.4054 0.8071, 1.3805 -5.3728 0.8071, 1.3962 -5.3348 0.8071, 1.3805 -4.7429 0.8071, 1.3554 -4.7103 0.8071, 1.3228 -4.6852 0.8071, 1.2033 -4.6695 0.8071, 1.1654 -4.6852 0.8071, 1.1327 -4.7103 0.8071, 1.1077 -4.7429 0.8071, 1.092 -4.7809 0.8071, 1.0866 -4.8216 0.8071, 1.4016 -5.2941 0.8071, 1.4016 -4.8216 0.8071, 1.3962 -4.7809 0.8071, 3.3268 -3.483 0.8071, 3.3268 -5.7468 0.8071, 3.5039 4.9225 0.8071, 3.6974 4.8437 0.8628, 3.7099 4.8437 0.8465, 3.7178 4.8437 0.8275, 3.6621 4.8437 0.8831, 3.6811 4.8437 0.8753, -3.7402 -4.0736 0.0787, -4.0453 -4.0736 0.0787, -3.7402 -5.2547 0.0787, -4.0453 -5.2547 0.0787, -3.7211 -4.0736 0.0933, -3.6451 -4.0736 0.073, -3.7231 -4.0736 0.0886, -3.6549 -4.0736 0.0492, -3.7262 -4.0736 0.0845, -3.6706 -4.0736 0.0288, -3.7303 -4.0736 0.0814, -3.6909 -4.0736 0.0132, -3.7351 -4.0736 0.0794, -3.7147 -4.0736 0.0034, -3.7402 -4.0736 0.0, -4.0453 -4.0736 0.0, -4.0453 -5.2547 0.0, -3.7402 -5.2547 0.0, -3.7351 -5.2547 0.0794, -3.7147 -5.2547 0.0034, -3.7303 -5.2547 0.0814, -3.6909 -5.2547 0.0132, -3.7262 -5.2547 0.0845, -3.6706 -5.2547 0.0288, -3.7231 -5.2547 0.0886, -3.6549 -5.2547 0.0492, -3.7211 -5.2547 0.0933, -3.6451 -5.2547 0.073, 3.7402 -5.2547 0.0787, 4.0453 -5.2547 0.0787, 3.7402 -4.0736 0.0787, 4.0453 -4.0736 0.0787, 4.0453 -4.0736 0.0, 3.7402 -4.0736 0.0, 3.7351 -4.0736 0.0794, 3.7147 -4.0736 0.0034, 3.7303 -4.0736 0.0814, 3.6909 -4.0736 0.0132, 3.7262 -4.0736 0.0845, 3.6706 -4.0736 0.0288, 3.7231 -4.0736 0.0886, 3.6549 -4.0736 0.0492, 3.7211 -4.0736 0.0933, 3.6451 -4.0736 0.073, 3.7211 -5.2547 0.0933, 3.6451 -5.2547 0.073, 3.7231 -5.2547 0.0886, 3.6549 -5.2547 0.0492, 3.7262 -5.2547 0.0845, 3.6706 -5.2547 0.0288, 3.7303 -5.2547 0.0814, 3.6909 -5.2547 0.0132, 3.7351 -5.2547 0.0794, 3.7147 -5.2547 0.0034, 3.7402 -5.2547 0.0, 4.0453 -5.2547 0.0, 2.3425 4.9225 0.0591, 3.5039 4.9225 0.0591, 3.5039 5.0012 0.0591, 2.3425 5.0012 0.0591, 3.5039 5.0012 0.8071, 2.3425 5.0012 0.8071, 3.5039 4.94 0.8839, 2.3425 4.94 0.8839, 3.5039 4.9566 0.878, 2.3425 4.9566 0.878, 3.5039 4.9716 0.8686, 2.3425 4.9716 0.8686, 3.5039 4.984 0.8562, 2.3425 4.984 0.8562, 3.5039 4.9934 0.8413, 2.3425 4.9934 0.8413, 3.5039 4.9992 0.8246, 2.3425 4.9992 0.8246
            ]
        }
        coordIndex [
            0,1,2,-1,2,1,3,-1,3,1,4,-1,4,1,5,-1,4,5,6,-1,6,5,7,-1,6,7,8,-1,8,7,9,-1,8,9,10,-1,10,9,11,-1,10,11,12,-1,12,11,13,-1,12,13,14,-1,14,13,15,-1,14,15,16,-1,16,15,17,-1,16,17,18,-1,18,17,19,-1,18,19,20,-1,20,19,21,-1,20,21,22,-1,22,21,23,-1,22,23,24,-1,24,23,25,-1,24,25,26,-1,26,25,27,-1,27,28,26,-1,26,28,29,-1,29,28,30,-1,30,28,31,-1,30,31,32,-1,32,31,33,-1,32,33,34,-1,34,33,35,-1,34,35,36,-1,36,35,37,-1,36,37,38,-1,38,37,39,-1,38,39,40,-1,40,39,41,-1,40,41,42,-1,42,41,43,-1,42,43,44,-1,44,43,45,-1,44,45,46,-1,46,45,47,-1,46,47,48,-1,48,47,49,-1,48,49,50,-1,50,49,51,-1,50,51,2,-1,2,51,0,-1,52,53,54,-1,54,53,55,-1,55,56,54,-1,54,56,57,-1,56,58,57,-1,57,58,59,-1,59,58,60,-1,59,60,61,-1,61,60,62,-1,61,62,63,-1,63,62,64,-1,63,64,65,-1,65,64,66,-1,65,66,67,-1,67,66,68,-1,67,68,69,-1,69,68,70,-1,69,70,71,-1,71,70,72,-1,71,72,73,-1,74,75,76,-1,76,75,77,-1,76,77,78,-1,79,80,81,-1,81,80,76,-1,81,76,82,-1,82,76,83,-1,78,84,76,-1,76,84,85,-1,76,85,83,-1,86,87,88,-1,88,87,89,-1,90,89,87,-1,91,92,93,-1,93,92,94,-1,93,94,95,-1,95,96,93,-1,93,96,90,-1,93,90,97,-1,97,90,87,-1,91,98,92,-1,92,98,99,-1,100,86,101,-1,101,86,88,-1,101,88,102,-1,99,98,103,-1,103,98,104,-1,103,104,105,-1,105,104,106,-1,105,106,107,-1,107,106,102,-1,107,102,108,-1,108,102,88,-1,109,110,111,-1,111,110,112,-1,111,112,113,-1,75,114,77,-1,77,114,115,-1,77,115,112,-1,112,115,116,-1,112,116,113,-1,114,75,117,-1,117,75,74,-1,110,118,112,-1,112,118,119,-1,112,119,120,-1,120,119,121,-1,98,91,104,-1,104,91,93,-1,104,93,122,-1,122,123,104,-1,104,123,124,-1,104,124,125,-1,126,127,119,-1,119,127,128,-1,119,128,121,-1,125,129,104,-1,104,129,130,-1,104,130,131,-1,131,130,132,-1,131,132,133,-1,133,132,134,-1,133,134,135,-1,135,134,136,-1,135,136,137,-1,137,136,138,-1,137,138,139,-1,139,138,140,-1,139,140,141,-1,141,140,142,-1,141,142,143,-1,143,142,144,-1,143,144,119,-1,119,144,145,-1,119,145,126,-1,146,147,148,-1,79,81,149,-1,150,151,152,-1,153,154,155,-1,155,154,156,-1,155,156,157,-1,154,158,156,-1,156,158,159,-1,156,159,152,-1,152,159,160,-1,152,160,150,-1,161,162,163,-1,163,162,164,-1,151,165,152,-1,152,165,166,-1,152,166,167,-1,161,168,162,-1,162,168,169,-1,162,169,170,-1,171,172,173,-1,173,172,174,-1,173,174,155,-1,155,174,175,-1,155,175,176,-1,177,178,155,-1,155,178,179,-1,155,179,153,-1,167,180,152,-1,152,180,181,-1,152,181,162,-1,162,181,182,-1,162,182,164,-1,176,183,155,-1,155,183,184,-1,155,184,177,-1,185,186,173,-1,173,186,187,-1,173,187,171,-1,188,156,189,-1,189,156,152,-1,189,152,190,-1,190,152,191,-1,73,72,192,-1,192,72,79,-1,79,149,192,-1,192,149,193,-1,192,193,194,-1,195,196,197,-1,197,196,198,-1,197,198,199,-1,200,201,149,-1,149,201,202,-1,149,202,193,-1,194,203,192,-1,192,203,204,-1,192,204,197,-1,197,204,205,-1,197,205,195,-1,199,206,197,-1,197,206,207,-1,197,207,208,-1,208,207,209,-1,208,209,210,-1,210,209,211,-1,210,212,208,-1,208,212,213,-1,208,213,214,-1,215,216,217,-1,217,216,218,-1,214,219,208,-1,208,219,220,-1,208,220,217,-1,217,220,221,-1,217,221,215,-1,222,223,224,-1,224,223,225,-1,224,225,226,-1,227,228,229,-1,229,228,230,-1,218,231,217,-1,217,231,232,-1,217,232,224,-1,224,232,233,-1,224,233,222,-1,222,233,234,-1,226,235,224,-1,224,235,236,-1,224,236,229,-1,229,236,237,-1,229,237,227,-1,170,185,162,-1,162,185,173,-1,162,173,238,-1,238,173,229,-1,238,229,239,-1,239,229,230,-1,240,241,242,-1,231,243,232,-1,232,243,244,-1,232,244,245,-1,246,247,248,-1,248,247,249,-1,250,251,209,-1,209,251,252,-1,209,252,211,-1,241,253,242,-1,242,253,254,-1,242,254,255,-1,255,256,248,-1,248,256,257,-1,248,257,246,-1,258,259,260,-1,260,259,149,-1,149,259,261,-1,149,261,200,-1,206,262,207,-1,207,262,263,-1,207,263,264,-1,265,266,267,-1,267,266,268,-1,267,268,269,-1,269,270,267,-1,267,270,271,-1,267,271,272,-1,272,273,260,-1,260,273,274,-1,260,274,258,-1,275,276,277,-1,277,276,278,-1,239,279,238,-1,238,279,280,-1,238,280,281,-1,282,283,284,-1,284,283,285,-1,284,285,286,-1,287,288,233,-1,233,288,289,-1,233,289,234,-1,286,290,284,-1,284,290,291,-1,284,291,277,-1,277,291,292,-1,277,292,275,-1,142,293,144,-1,144,293,294,-1,130,295,132,-1,132,295,296,-1,132,296,134,-1,134,296,148,-1,134,148,136,-1,136,148,297,-1,136,297,138,-1,138,297,298,-1,138,298,140,-1,140,298,299,-1,272,260,267,-1,267,260,300,-1,267,300,294,-1,294,300,145,-1,294,145,144,-1,47,293,49,-1,49,293,51,-1,294,39,37,-1,47,45,293,-1,293,45,43,-1,293,43,294,-1,294,43,41,-1,294,41,39,-1,19,267,21,-1,21,267,23,-1,37,35,294,-1,294,35,33,-1,294,33,31,-1,13,248,15,-1,15,248,267,-1,15,267,17,-1,17,267,19,-1,13,11,248,-1,248,11,9,-1,248,9,7,-1,7,5,248,-1,248,5,1,-1,248,1,293,-1,293,1,0,-1,293,0,51,-1,31,28,294,-1,294,28,27,-1,294,27,267,-1,267,27,25,-1,267,25,23,-1,255,248,242,-1,242,248,293,-1,242,293,299,-1,299,293,142,-1,299,142,140,-1,301,302,298,-1,302,303,298,-1,298,303,304,-1,298,304,305,-1,306,307,277,-1,299,308,309,-1,307,310,277,-1,277,310,311,-1,277,311,312,-1,305,313,298,-1,298,313,314,-1,298,314,299,-1,299,314,315,-1,299,315,308,-1,309,316,299,-1,299,316,317,-1,299,317,318,-1,306,277,319,-1,319,277,242,-1,319,242,320,-1,321,322,242,-1,242,322,323,-1,242,323,320,-1,318,324,299,-1,299,324,325,-1,299,325,242,-1,242,325,326,-1,242,326,321,-1,327,328,148,-1,329,330,284,-1,331,297,332,-1,332,297,333,-1,147,334,148,-1,148,334,335,-1,148,335,327,-1,336,337,338,-1,338,337,284,-1,338,284,339,-1,339,284,330,-1,328,340,148,-1,148,340,341,-1,148,341,297,-1,297,341,342,-1,297,342,333,-1,343,344,284,-1,284,344,345,-1,284,345,329,-1,336,346,337,-1,337,346,347,-1,337,347,348,-1,331,349,297,-1,297,349,350,-1,297,350,351,-1,312,301,277,-1,277,301,298,-1,277,298,284,-1,284,298,297,-1,284,297,343,-1,343,297,351,-1,295,352,296,-1,296,352,353,-1,296,353,148,-1,148,353,337,-1,148,337,146,-1,146,337,348,-1,249,250,248,-1,248,250,209,-1,248,209,267,-1,267,209,207,-1,267,207,265,-1,265,207,264,-1,278,287,277,-1,277,287,233,-1,277,233,242,-1,242,233,232,-1,242,232,240,-1,240,232,245,-1,352,191,353,-1,353,191,152,-1,353,152,337,-1,337,152,162,-1,337,162,284,-1,284,162,238,-1,284,238,282,-1,282,238,281,-1,354,118,109,-1,109,118,110,-1,355,356,357,-1,357,356,117,-1,357,117,76,-1,76,117,74,-1,118,354,119,-1,119,354,358,-1,119,358,359,-1,359,358,360,-1,359,360,355,-1,355,360,361,-1,355,361,356,-1,362,363,364,-1,365,100,101,-1,366,367,364,-1,364,367,368,-1,364,368,369,-1,370,371,372,-1,373,374,375,-1,375,376,373,-1,373,376,377,-1,373,377,378,-1,379,380,381,-1,371,370,382,-1,382,370,383,-1,382,383,384,-1,384,385,382,-1,382,385,386,-1,382,386,387,-1,387,388,382,-1,382,388,389,-1,382,389,364,-1,364,389,390,-1,364,390,366,-1,380,391,381,-1,381,391,392,-1,381,392,393,-1,394,395,373,-1,373,395,396,-1,373,396,374,-1,393,397,381,-1,381,397,398,-1,381,398,372,-1,372,398,399,-1,372,399,370,-1,400,401,381,-1,381,401,402,-1,381,402,379,-1,403,404,405,-1,406,407,363,-1,363,407,408,-1,406,363,409,-1,409,363,362,-1,409,362,410,-1,404,411,405,-1,405,411,412,-1,405,412,413,-1,413,412,414,-1,413,414,415,-1,408,416,363,-1,363,416,417,-1,363,417,405,-1,405,417,418,-1,405,418,403,-1,419,420,421,-1,421,420,422,-1,421,422,423,-1,424,425,426,-1,426,425,427,-1,426,427,428,-1,428,427,429,-1,428,429,430,-1,430,431,428,-1,428,431,432,-1,428,432,421,-1,421,432,433,-1,421,433,419,-1,357,76,80,-1,434,435,436,-1,53,52,80,-1,80,52,436,-1,80,436,357,-1,357,436,435,-1,437,438,439,-1,439,438,440,-1,439,440,421,-1,438,441,440,-1,440,441,442,-1,440,442,443,-1,435,444,357,-1,357,444,445,-1,357,445,446,-1,443,447,440,-1,440,447,448,-1,440,448,436,-1,436,448,449,-1,436,449,434,-1,450,451,452,-1,453,454,455,-1,455,454,456,-1,455,456,457,-1,458,459,460,-1,460,459,461,-1,460,461,462,-1,462,463,460,-1,460,463,464,-1,460,464,452,-1,452,464,465,-1,452,465,450,-1,451,466,452,-1,452,466,467,-1,452,467,426,-1,426,467,468,-1,426,468,424,-1,469,470,355,-1,446,471,357,-1,357,471,472,-1,357,472,355,-1,355,472,473,-1,355,473,469,-1,474,475,476,-1,476,475,477,-1,476,477,478,-1,478,479,476,-1,476,479,480,-1,476,480,481,-1,482,483,439,-1,439,483,484,-1,439,484,437,-1,481,482,476,-1,476,482,439,-1,476,439,455,-1,455,439,421,-1,455,421,453,-1,453,421,423,-1,485,486,487,-1,487,486,488,-1,489,490,491,-1,415,492,413,-1,413,492,493,-1,413,493,489,-1,489,493,494,-1,489,494,490,-1,495,496,362,-1,362,496,497,-1,362,497,410,-1,491,498,489,-1,489,498,499,-1,489,499,487,-1,487,499,500,-1,487,500,485,-1,488,495,487,-1,487,495,362,-1,487,362,373,-1,373,362,364,-1,373,364,394,-1,394,364,369,-1,470,474,355,-1,355,474,476,-1,355,476,359,-1,359,476,501,-1,359,501,119,-1,14,16,476,-1,16,18,476,-1,476,18,20,-1,476,20,22,-1,30,32,501,-1,501,32,34,-1,501,34,36,-1,42,502,40,-1,40,502,501,-1,40,501,38,-1,38,501,36,-1,42,44,502,-1,502,44,46,-1,502,46,48,-1,4,6,460,-1,457,458,455,-1,455,458,460,-1,455,460,476,-1,476,460,12,-1,476,12,14,-1,22,24,476,-1,476,24,26,-1,476,26,501,-1,501,26,29,-1,501,29,30,-1,4,460,3,-1,6,8,460,-1,460,8,10,-1,460,10,12,-1,48,50,502,-1,502,50,2,-1,502,2,3,-1,503,504,505,-1,505,506,503,-1,503,506,507,-1,503,507,508,-1,509,510,511,-1,511,510,512,-1,513,514,489,-1,508,515,503,-1,503,515,516,-1,503,516,511,-1,511,516,517,-1,511,517,509,-1,513,489,518,-1,514,519,489,-1,489,519,520,-1,489,520,521,-1,521,522,489,-1,489,522,452,-1,489,452,413,-1,413,452,426,-1,413,426,405,-1,405,426,428,-1,522,523,452,-1,452,523,524,-1,452,524,525,-1,3,460,502,-1,502,460,452,-1,502,452,503,-1,503,452,526,-1,503,526,504,-1,525,527,452,-1,452,527,528,-1,452,528,526,-1,512,529,511,-1,511,529,530,-1,511,530,518,-1,531,532,533,-1,533,534,531,-1,531,534,535,-1,531,535,536,-1,536,537,531,-1,531,537,538,-1,531,538,539,-1,539,538,540,-1,539,540,541,-1,373,542,487,-1,487,542,543,-1,487,543,544,-1,541,545,539,-1,539,545,546,-1,539,546,547,-1,548,549,542,-1,542,549,550,-1,542,550,543,-1,544,551,487,-1,487,551,552,-1,487,552,553,-1,553,554,487,-1,487,554,555,-1,487,555,556,-1,518,489,511,-1,511,489,487,-1,511,487,531,-1,531,487,556,-1,531,556,532,-1,547,557,539,-1,539,557,558,-1,539,558,542,-1,542,558,559,-1,542,559,548,-1,378,400,373,-1,373,400,381,-1,373,381,542,-1,542,381,560,-1,542,560,539,-1,539,560,561,-1,106,561,102,-1,102,561,560,-1,102,560,101,-1,101,560,381,-1,101,381,365,-1,365,381,372,-1,365,372,562,-1,119,501,143,-1,143,501,502,-1,143,502,141,-1,141,502,503,-1,141,503,139,-1,139,503,511,-1,139,511,137,-1,137,511,531,-1,137,531,135,-1,135,531,539,-1,135,539,133,-1,133,539,561,-1,133,561,131,-1,131,561,106,-1,131,106,104,-1,87,86,97,-1,97,86,100,-1,365,189,100,-1,100,189,190,-1,563,564,100,-1,100,564,565,-1,100,565,97,-1,190,566,100,-1,100,566,567,-1,100,567,563,-1,568,569,570,-1,570,569,571,-1,116,361,572,-1,572,361,573,-1,572,573,574,-1,574,573,575,-1,574,575,576,-1,576,575,577,-1,576,577,578,-1,578,577,579,-1,578,579,580,-1,580,579,581,-1,580,581,568,-1,568,581,582,-1,568,582,569,-1,569,582,583,-1,571,584,570,-1,570,584,585,-1,570,585,586,-1,586,585,587,-1,586,587,588,-1,588,587,589,-1,588,589,590,-1,590,589,591,-1,590,591,592,-1,592,591,593,-1,592,593,594,-1,594,593,595,-1,594,595,113,-1,113,595,360,-1,585,584,582,-1,582,584,583,-1,569,583,571,-1,571,583,584,-1,360,358,113,-1,113,358,111,-1,358,354,111,-1,111,354,109,-1,117,356,114,-1,114,356,115,-1,356,361,115,-1,115,361,116,-1,361,360,595,-1,361,595,573,-1,573,595,593,-1,573,593,575,-1,575,593,591,-1,575,591,577,-1,577,591,589,-1,577,589,579,-1,579,589,587,-1,579,587,581,-1,581,587,585,-1,581,585,582,-1,596,597,598,-1,598,597,599,-1,599,600,598,-1,598,600,601,-1,598,601,602,-1,602,601,603,-1,602,603,604,-1,604,603,605,-1,604,605,606,-1,606,605,607,-1,606,607,608,-1,608,607,609,-1,608,609,610,-1,610,609,611,-1,610,611,96,-1,96,611,107,-1,95,105,612,-1,612,105,613,-1,612,613,614,-1,614,613,615,-1,614,615,616,-1,616,615,617,-1,616,617,618,-1,618,617,619,-1,618,619,620,-1,620,619,621,-1,620,621,596,-1,596,621,622,-1,596,622,597,-1,597,622,623,-1,600,599,623,-1,623,599,597,-1,601,600,622,-1,622,600,623,-1,99,103,92,-1,92,103,94,-1,103,105,94,-1,94,105,95,-1,107,108,96,-1,96,108,90,-1,108,88,90,-1,90,88,89,-1,105,107,611,-1,105,611,613,-1,613,611,609,-1,613,609,615,-1,615,609,607,-1,615,607,617,-1,617,607,605,-1,617,605,619,-1,619,605,603,-1,619,603,621,-1,621,603,601,-1,621,601,622,-1,596,598,620,-1,620,598,602,-1,620,602,618,-1,618,602,604,-1,618,604,616,-1,616,604,606,-1,616,606,614,-1,614,606,608,-1,614,608,612,-1,612,608,610,-1,612,610,95,-1,95,610,96,-1,568,570,580,-1,580,570,586,-1,580,586,578,-1,578,586,588,-1,578,588,576,-1,576,588,590,-1,576,590,574,-1,574,590,592,-1,574,592,572,-1,572,592,594,-1,572,594,116,-1,116,594,113,-1,566,190,191,-1,191,352,129,-1,129,352,295,-1,129,295,130,-1,191,129,566,-1,566,129,125,-1,566,125,567,-1,567,125,124,-1,567,124,563,-1,563,124,123,-1,563,123,564,-1,564,123,122,-1,564,122,565,-1,565,122,93,-1,565,93,97,-1,77,112,120,-1,77,120,78,-1,78,120,121,-1,78,121,84,-1,84,121,128,-1,84,128,85,-1,85,128,127,-1,85,127,83,-1,83,127,126,-1,83,126,82,-1,145,300,126,-1,126,300,260,-1,260,149,126,-1,126,149,81,-1,126,81,82,-1,371,624,372,-1,372,624,625,-1,372,625,562,-1,626,625,627,-1,627,625,624,-1,628,626,629,-1,629,626,627,-1,156,188,630,-1,631,632,633,-1,633,632,634,-1,633,634,635,-1,635,634,636,-1,635,636,637,-1,637,636,638,-1,637,638,639,-1,639,638,640,-1,639,640,641,-1,641,640,628,-1,641,628,629,-1,157,156,631,-1,631,156,630,-1,631,630,632,-1,562,634,632,-1,625,626,562,-1,562,626,628,-1,562,628,640,-1,189,365,188,-1,188,365,562,-1,188,562,630,-1,630,562,632,-1,640,638,562,-1,562,638,636,-1,562,636,634,-1,56,55,58,-1,58,55,53,-1,80,79,53,-1,53,79,72,-1,53,66,64,-1,72,70,53,-1,53,70,68,-1,53,68,66,-1,64,62,53,-1,53,62,60,-1,53,60,58,-1,52,67,69,-1,54,57,52,-1,52,57,59,-1,52,59,61,-1,192,436,73,-1,73,436,52,-1,73,52,71,-1,71,52,69,-1,61,63,52,-1,52,63,65,-1,52,65,67,-1,627,624,629,-1,629,624,371,-1,382,155,371,-1,371,155,157,-1,371,635,637,-1,157,631,371,-1,371,631,633,-1,371,633,635,-1,637,639,371,-1,371,639,641,-1,371,641,629,-1,436,192,440,-1,440,192,197,-1,440,197,421,-1,421,197,208,-1,421,208,428,-1,428,208,217,-1,428,217,405,-1,405,217,224,-1,405,224,363,-1,363,224,229,-1,363,229,364,-1,364,229,173,-1,364,173,382,-1,382,173,155,-1,532,351,533,-1,533,351,350,-1,533,350,534,-1,534,350,349,-1,534,349,535,-1,535,349,331,-1,535,331,536,-1,536,331,332,-1,536,332,537,-1,537,332,333,-1,537,333,538,-1,538,333,342,-1,538,342,540,-1,540,342,341,-1,540,341,541,-1,541,341,340,-1,541,340,545,-1,545,340,328,-1,545,328,546,-1,546,328,327,-1,546,327,547,-1,547,327,335,-1,547,335,557,-1,557,335,334,-1,343,351,556,-1,556,351,532,-1,558,147,559,-1,559,147,146,-1,559,146,548,-1,548,146,348,-1,548,348,549,-1,549,348,347,-1,549,347,550,-1,550,347,346,-1,550,346,543,-1,543,346,336,-1,543,336,544,-1,544,336,338,-1,544,338,551,-1,551,338,339,-1,551,339,552,-1,552,339,330,-1,552,330,553,-1,553,330,329,-1,553,329,554,-1,554,329,345,-1,554,345,555,-1,555,345,344,-1,555,344,556,-1,556,344,343,-1,334,147,557,-1,557,147,558,-1,504,324,505,-1,505,324,318,-1,505,318,506,-1,506,318,317,-1,506,317,507,-1,507,317,316,-1,507,316,508,-1,508,316,309,-1,508,309,515,-1,515,309,308,-1,515,308,516,-1,516,308,315,-1,516,315,517,-1,517,315,314,-1,517,314,509,-1,509,314,313,-1,509,313,510,-1,510,313,305,-1,510,305,512,-1,512,305,304,-1,512,304,529,-1,529,304,303,-1,529,303,530,-1,530,303,302,-1,325,324,526,-1,526,324,504,-1,518,301,513,-1,513,301,312,-1,513,312,514,-1,514,312,311,-1,514,311,519,-1,519,311,310,-1,519,310,520,-1,520,310,307,-1,520,307,521,-1,521,307,306,-1,521,306,522,-1,522,306,319,-1,522,319,523,-1,523,319,320,-1,523,320,524,-1,524,320,323,-1,524,323,525,-1,525,323,322,-1,525,322,527,-1,527,322,321,-1,527,321,528,-1,528,321,326,-1,528,326,526,-1,526,326,325,-1,302,301,530,-1,530,301,518,-1,425,243,427,-1,427,243,231,-1,427,231,429,-1,429,231,218,-1,429,218,430,-1,430,218,216,-1,430,216,431,-1,431,216,215,-1,431,215,432,-1,432,215,221,-1,432,221,433,-1,433,221,220,-1,433,220,419,-1,419,220,219,-1,419,219,420,-1,420,219,214,-1,420,214,422,-1,422,214,213,-1,422,213,423,-1,423,213,212,-1,423,212,453,-1,453,212,210,-1,453,210,454,-1,454,210,211,-1,468,245,424,-1,424,245,244,-1,424,244,425,-1,425,244,243,-1,457,251,458,-1,458,251,250,-1,458,250,459,-1,459,250,249,-1,459,249,461,-1,461,249,247,-1,461,247,462,-1,462,247,246,-1,462,246,463,-1,463,246,257,-1,463,257,464,-1,464,257,256,-1,464,256,465,-1,465,256,255,-1,465,255,450,-1,450,255,254,-1,450,254,451,-1,451,254,253,-1,451,253,466,-1,466,253,241,-1,466,241,467,-1,467,241,240,-1,467,240,468,-1,468,240,245,-1,454,211,456,-1,456,211,252,-1,456,252,457,-1,457,252,251,-1,437,262,438,-1,438,262,206,-1,438,206,441,-1,441,206,199,-1,441,199,442,-1,442,199,198,-1,442,198,443,-1,443,198,196,-1,443,196,447,-1,447,196,195,-1,447,195,448,-1,448,195,205,-1,448,205,449,-1,449,205,204,-1,449,204,434,-1,434,204,203,-1,434,203,435,-1,435,203,194,-1,435,194,444,-1,444,194,193,-1,444,193,445,-1,445,193,202,-1,445,202,446,-1,446,202,201,-1,483,264,484,-1,484,264,263,-1,484,263,437,-1,437,263,262,-1,472,261,473,-1,473,261,259,-1,473,259,469,-1,469,259,258,-1,469,258,470,-1,470,258,274,-1,470,274,474,-1,474,274,273,-1,474,273,475,-1,475,273,272,-1,475,272,477,-1,477,272,271,-1,477,271,478,-1,478,271,270,-1,478,270,479,-1,479,270,269,-1,479,269,480,-1,480,269,268,-1,480,268,481,-1,481,268,266,-1,481,266,482,-1,482,266,265,-1,482,265,483,-1,483,265,264,-1,446,201,471,-1,471,201,200,-1,471,200,472,-1,472,200,261,-1,414,234,415,-1,415,234,289,-1,415,289,492,-1,492,289,288,-1,492,288,493,-1,493,288,287,-1,493,287,494,-1,494,287,278,-1,494,278,490,-1,490,278,276,-1,490,276,491,-1,491,276,275,-1,491,275,498,-1,498,275,292,-1,498,292,499,-1,499,292,291,-1,499,291,500,-1,500,291,290,-1,500,290,485,-1,485,290,286,-1,485,286,486,-1,486,286,285,-1,486,285,488,-1,488,285,283,-1,488,283,495,-1,495,283,282,-1,495,282,496,-1,496,282,281,-1,496,281,497,-1,497,281,280,-1,497,280,410,-1,410,280,279,-1,410,279,409,-1,409,279,239,-1,409,239,406,-1,406,239,230,-1,406,230,407,-1,407,230,228,-1,407,228,408,-1,408,228,227,-1,408,227,416,-1,416,227,237,-1,416,237,417,-1,417,237,236,-1,417,236,418,-1,418,236,235,-1,418,235,403,-1,403,235,226,-1,403,226,404,-1,404,226,225,-1,404,225,411,-1,411,225,223,-1,411,223,412,-1,412,223,222,-1,412,222,414,-1,414,222,234,-1,398,159,399,-1,399,159,158,-1,399,158,370,-1,370,158,154,-1,370,154,383,-1,383,154,153,-1,383,153,384,-1,384,153,179,-1,384,179,385,-1,385,179,178,-1,385,178,386,-1,386,178,177,-1,386,177,387,-1,387,177,184,-1,160,159,397,-1,397,159,398,-1,401,181,402,-1,402,181,180,-1,402,180,379,-1,379,180,167,-1,379,167,380,-1,380,167,166,-1,380,166,391,-1,391,166,165,-1,391,165,392,-1,392,165,151,-1,392,151,393,-1,393,151,150,-1,393,150,397,-1,397,150,160,-1,182,181,400,-1,400,181,401,-1,395,185,396,-1,396,185,170,-1,396,170,374,-1,374,170,169,-1,374,169,375,-1,375,169,168,-1,375,168,376,-1,376,168,161,-1,376,161,377,-1,377,161,163,-1,377,163,378,-1,378,163,164,-1,378,164,400,-1,400,164,182,-1,186,185,394,-1,394,185,395,-1,388,183,389,-1,389,183,176,-1,389,176,390,-1,390,176,175,-1,390,175,366,-1,366,175,174,-1,366,174,367,-1,367,174,172,-1,367,172,368,-1,368,172,171,-1,368,171,369,-1,369,171,187,-1,369,187,394,-1,394,187,186,-1,184,183,387,-1,387,183,388,-1,
        ]
    }
}